<svg width="100" height="100" viewBox="0 0 100 100" xmlns="http://www.w3.org/2000/svg"><path d="M50.5 40.108l-.165-.1c-1.565-.956-8.134-5.43-7.97-13.034.163-7.58 6.445-12.716 7.97-13.853L50.5 13l.165.12c1.525 1.138 7.807 6.275 7.97 13.854.164 7.603-6.405 12.078-7.97 13.035l-.165.098zm9.015 5.196l.003-.193c.046-1.832.638-9.76 7.304-13.42 6.645-3.647 14.235-.775 15.98-.023l.19.083-.023.204c-.223 1.89-1.53 9.898-8.013 13.83-6.502 3.942-13.663.49-15.274-.386l-.168-.094zm0 10.392l.168-.094c1.61-.876 8.772-4.328 15.274-.385 6.483 3.93 7.79 11.94 8.012 13.83l.02.203-.187.083c-1.746.752-9.336 3.624-15.98-.024-6.667-3.66-7.26-11.588-7.305-13.42l-.003-.194zM50.5 60.892l.165.1c1.565.956 8.134 5.43 7.97 13.034-.163 7.58-6.445 12.716-7.97 13.853L50.5 88l-.165-.12c-1.525-1.138-7.807-6.275-7.97-13.854-.164-7.603 6.405-12.078 7.97-13.035l.165-.098zm-9.015-5.196l-.003.193c-.046 1.832-.638 9.76-7.304 13.42-6.645 3.647-14.235.775-15.98.023l-.19-.083.023-.204c.223-1.89 1.53-9.898 8.013-13.83 6.502-3.942 13.663-.49 15.274.386l.168.094zm0-10.392l-.168.094c-1.61.876-8.772 4.328-15.274.385-6.483-3.93-7.79-11.94-8.012-13.83l-.02-.203.187-.083c1.746-.752 9.336-3.624 15.98.024 6.667 3.66 7.26 11.588 7.305 13.42l.003.194z" fill="white" fill-rule="evenodd"></path></svg>