<svg width="100" height="100" viewBox="0 0 100 100" xmlns="http://www.w3.org/2000/svg"><g fill="none" fill-rule="evenodd"><path fill="white" d="M18 18h64v64H18z"></path><path d="M34.892 57.608l-2.16 6.48h4.296l-2.136-6.48zm3.12 9.456h-6.264L30.428 71h-3.264l5.784-17.184h4.416L43.124 71h-3.816l-1.296-3.936zm12.432.528c.768 0 1.4-.26 1.896-.78s.744-1.316.744-2.388c0-1.088-.248-1.896-.744-2.424s-1.136-.792-1.92-.792c-.768 0-1.416.268-1.944.804s-.792 1.34-.792 2.412c0 1.056.264 1.848.792 2.376.528.528 1.184.792 1.968.792zm-.864 7.704c-1.104 0-2.096-.092-2.976-.276-.88-.184-1.592-.428-2.136-.732l.744-2.976c.384.256.956.5 1.716.732.76.232 1.644.348 2.652.348 1.168 0 2.04-.224 2.616-.672.576-.448.864-1.216.864-2.304V68.36c-.384.624-.888 1.12-1.512 1.488-.624.368-1.376.56-2.256.576-.72 0-1.408-.12-2.064-.36-.656-.24-1.236-.612-1.74-1.116-.504-.504-.904-1.132-1.2-1.884-.296-.752-.444-1.632-.444-2.64 0-1.024.152-1.916.456-2.676.304-.76.708-1.396 1.212-1.908s1.088-.896 1.752-1.152c.664-.256 1.356-.384 2.076-.384.912 0 1.684.18 2.316.54.632.36 1.14.868 1.524 1.524.016-.304.048-.632.096-.984s.096-.632.144-.84h3.48c-.032.224-.06.544-.084.96-.024.416-.036.76-.036 1.032v8.688c0 .944-.14 1.788-.42 2.532-.28.744-.712 1.38-1.296 1.908-.584.528-1.328.932-2.232 1.212-.904.28-1.988.42-3.252.42z" fill="#ac46fb"></path></g></svg>