<svg width="100" height="100" viewBox="0 0 100 100" xmlns="http://www.w3.org/2000/svg"><path d="M18.32 28.04H46.4v7.8H27.92v9.06h15.36v7.8H27.92v10.5H46.7V71H18.32V28.04zM68.9 46.52c-1.48 0-2.78.27-3.9.81s-2.02 1.23-2.7 2.07V71H53V39.86h8.76l.36 4.38h.12c.88-1.4 2.11-2.58 3.69-3.54s3.59-1.44 6.03-1.44c1.48 0 2.87.21 4.17.63 1.3.42 2.43 1.04 3.39 1.86.96.82 1.71 1.86 2.25 3.12s.81 2.73.81 4.41V71h-9.3V50.24c0-1.36-.39-2.32-1.17-2.88-.78-.56-1.85-.84-3.21-.84z" fill="white" fill-rule="evenodd"></path></svg>