<svg width="100" height="100" viewBox="0 0 100 100" xmlns="http://www.w3.org/2000/svg"><g fill="white" fill-rule="evenodd"><path d="M49 52c1.105 0 2-.895 2-2s-.895-2-2-2-2 .895-2 2 .895 2 2 2zm0 6c-4.418 0-8-3.582-8-8s3.582-8 8-8 8 3.582 8 8-3.582 8-8 8z" fill-rule="nonzero"></path><path d="M49 73c12.703 0 23-10.297 23-23S61.703 27 49 27 26 37.297 26 50s10.297 23 23 23zm0 8c-17.12 0-31-13.88-31-31 0-17.12 13.88-31 31-31 17.12 0 31 13.88 31 31 0 17.12-13.88 31-31 31z" fill-rule="nonzero"></path><path d="M19.497 35.1l-.576.998 2.965 2.866 4-6.928-3.964-1.134-.56.97c-4.932-2.952-4.187-4.787-7.3-6.662-1.888-1.14-4.643-.65-5.748 1.263l.157.126-.173-.1c-1.105 1.913-.15 4.544 1.78 5.61 3.18 1.757 4.397.195 9.42 2.99zm1.848 33l.576.998 3.965-1.134-4-6.928-2.964 2.866.562.97c-5.024 2.796-6.24 1.234-9.42 2.99-1.93 1.068-2.885 3.698-1.78 5.61l.187-.07-.173.098c1.104 1.913 3.86 2.402 5.748 1.264 3.112-1.876 2.368-3.71 7.3-6.664zM50.847 83H52l1-4h-8l1 4h1.122c-.092 5.748-2.053 6.02-2.12 9.654C44.958 94.858 46.76 97 48.968 97l.03-.2v.2c2.21 0 4.01-2.142 3.97-4.346-.07-3.633-2.03-3.906-2.123-9.654zm27.656-18.1l.576-.998-2.965-2.866-4 6.928 3.964 1.134.56-.97c4.932 2.952 4.187 4.787 7.3 6.662 1.888 1.14 4.643.65 5.748-1.263l-.157-.126.173.1c1.105-1.913.15-4.544-1.78-5.61-3.18-1.757-4.397-.195-9.42-2.99zm-1.848-33l-.576-.998-3.965 1.134 4 6.928 2.964-2.866-.562-.97c5.024-2.796 6.24-1.234 9.42-2.99 1.93-1.068 2.885-3.698 1.78-5.61l-.187.07.173-.098c-1.104-1.913-3.86-2.402-5.748-1.264-3.112 1.876-2.368 3.71-7.3 6.664zM47.268 47l-1.732 3 1.732 3h3.464l1.732-3-1.732-3h-3.464zm-1.17-2.03L47 26h4l.903 18.97 16.882-8.702 2 3.464L54.807 50l15.978 10.268-2 3.464-16.882-8.703L51 74h-4l-.903-18.97-16.882 8.702-2-3.464L43.193 50 27.215 39.732l2-3.464 16.882 8.703zM47.152 17H46l-1 4h8l-1-4h-1.122c.092-5.748 2.053-6.02 2.12-9.654C53.042 5.142 51.24 3 49.032 3l-.03.2V3c-2.21 0-4.01 2.142-3.97 4.346.07 3.633 2.03 3.906 2.123 9.654z"></path></g></svg>