<svg width="100" height="100" viewBox="0 0 100 100" xmlns="http://www.w3.org/2000/svg" xmlns:xlink="http://www.w3.org/1999/xlink"><defs><path d="M.207 47.88C-2.2 20.426 16.64 0 43.112 0c5.233 0 10.52.623 15.165 1.65l-7.3 14.474c-3.244-.743-6.726-.932-10.21-.932-14.168 0-28.562 8.438-29.954 26.78L.207 47.88zm55.3-4.156l-15.22-1.88c0 3.257 3.798 11.36 13.087 9.363l4.72 13.383c1.12 3.18 2.39 5.277 6.37 6.614.453 3.73.96 7.96 1.536 12.796-12.076 0-19.604-4.126-29.415-23.36-3.024-5.927-11.344-4.56-12.762.506-1.238 4.425-2.757 7.567-10.37 7.282.704-.61 3.103-3.77 3.103-11.837 0-5.507-.493-13.038-.493-13.038 0-12.53 10.13-22.688 22.628-22.688 11.882 0 21.35 6.54 22.254 21.442l2.21 19.658-2.844-1.887-4.802-16.353z" id="b"></path></defs><use fill="white" xlink:href="#b" transform="translate(15 8)" fill-rule="evenodd"></use></svg>