<svg width="100" height="100" viewBox="0 0 100 100" xmlns="http://www.w3.org/2000/svg"><g fill="none" fill-rule="evenodd"><path d="M38 39c2.76 0 5-2.24 5-5s-2.24-5-5-5-5 2.24-5 5 2.24 5 5 5zm0 6c-6.075 0-11-4.925-11-11s4.925-11 11-11 11 4.925 11 11-4.925 11-11 11z" fill="white" fill-rule="nonzero"></path><path fill="white" d="M16 23h6v22h-6z"></path><path d="M76 39c2.76 0 5-2.24 5-5s-2.24-5-5-5-5 2.24-5 5 2.24 5 5 5zm0 6c-6.075 0-11-4.925-11-11s4.925-11 11-11 11 4.925 11 11-4.925 11-11 11z" fill="white" fill-rule="nonzero"></path><path fill="white" d="M54 23h6v22h-6z"></path><path d="M63 71c-2.76 0-5-2.24-5-5s2.24-5 5-5 5 2.24 5 5-2.24 5-5 5zm0 6c6.075 0 11-4.925 11-11s-4.925-11-11-11-11 4.925-11 11 4.925 11 11 11z" fill="white" fill-rule="nonzero"></path><path fill="white" d="M85 55h-6v22h6z"></path><path d="M25 71c-2.76 0-5-2.24-5-5s2.24-5 5-5 5 2.24 5 5-2.24 5-5 5zm0 6c6.075 0 11-4.925 11-11s-4.925-11-11-11-11 4.925-11 11 4.925 11 11 11z" fill="white" fill-rule="nonzero"></path><path fill="white" d="M47 55h-6v22h6z"></path></g></svg>