<svg width="100" height="100" viewBox="0 0 100 100" xmlns="http://www.w3.org/2000/svg"><g fill="white" fill-rule="evenodd"><path d="M14.85 93C47.527 46.542 69.205 26.69 93.94 8.186 56.227 34.393 44.044 48.075 16.287 85.53L14.85 93z" fill-rule="nonzero"></path><path d="M24.43 76.655s-.95-5.977.646-13.657c1.163-5.602 3.68-12.11 8.908-17.867-.787 4.52.34 9.752.34 9.752s1.206-8.872 3.282-13.608c2.046-2.57 4.245-4.933 6.79-6.905-2.378 6.75-2.258 11.695-2.258 11.695s2.41-7.317 7.125-15.265c4.847-4.915 13.755-11.058 23.165-15.708-1.886 2.548-2.635 6.32-2.635 6.32s2.507-4.49 5.495-7.71c5.79-2.36 14.89-5.383 19.65-5.55-5.53 13.81-14.195 26.638-27.478 40.372-5.942 2.422-15.638 4.284-15.638 4.284s3.805.774 11.846.493c-2.09 2.114-4.152 4.076-6.978 6.11-4.53 1.684-13.97 3.302-13.97 3.302s7.063.392 10.54.27c-14.855 12.47-28.83 13.673-28.83 13.673z"></path></g></svg>