<svg width="100" height="100" viewBox="0 0 100 100" xmlns="http://www.w3.org/2000/svg" xmlns:xlink="http://www.w3.org/1999/xlink"><title>physics</title><defs><path d="M12.805 36.644H.89v23.964c0 12.983 10.447 23.504 23.334 23.504 12.89 0 23.333-10.524 23.333-23.504V36.644H35.642v23.964c0 6.354-5.11 11.503-11.418 11.503-6.307 0-11.42-5.148-11.42-11.502V36.644z" id="a"></path></defs><g transform="rotate(45 26.93 74.47)" fill="white" fill-rule="evenodd"><path d="M10.15 11.99V.215l-8.148 15.7 4.074-.98v11.774l8.148-15.7-4.074.98zM45.705 11.99V.215l-8.148 15.7 4.074-.98v11.774l8.15-15.7-4.075.98z"></path><use xlink:href="#a"></use></g></svg>