<?xml version="1.0" encoding="utf-8"?>
<!-- Svg Vector Icons : http://www.onlinewebfonts.com/icon -->
<!DOCTYPE svg PUBLIC "-//W3C//DTD SVG 1.1//EN" "http://www.w3.org/Graphics/SVG/1.1/DTD/svg11.dtd">
<svg version="1.1" xmlns="http://www.w3.org/2000/svg" xmlns:xlink="http://www.w3.org/1999/xlink" x="0px" y="0px" viewBox="0 0 1000 1000" enable-background="new 0 0 1000 1000" xml:space="preserve">
<metadata> Svg Vector Icons : http://www.onlinewebfonts.com/icon </metadata>
<g><path d="M925.9,534.9c-1.8,110.6-45.6,215.9-124.6,294.9c-165,165-435.4,165-602.1,0c-165-166.8-165-435.4,0-602.1c158-158,409-165,575.8-24.6l-151,38.6l7,36.9l217.7-50.9l-1.8-1.8h1.8L806.6,10l-36.9,8.8L801.3,175C618.7,20.5,344.9,27.6,172.8,199.6C-8,380.4-8,673.6,172.8,854.4c180.8,180.8,474,180.8,654.8,0c86-86,133.4-200.1,135.2-321.3L925.9,534.9z"/></g>
</svg>