<svg width="100" height="100" viewBox="0 0 100 100" xmlns="http://www.w3.org/2000/svg"><g fill="white" fill-rule="evenodd"><path d="M32.035 38.52l-5.4 16.2h10.74l-5.34-16.2zm7.8 23.64h-15.66l-3.3 9.84h-8.16l14.46-42.96h11.04L52.615 72h-9.54l-3.24-9.84zM69.106 66.24c1.52 0 2.74-.37 3.66-1.11.92-.74 1.62-1.53 2.1-2.37V58.2h-3c-2.24 0-3.88.39-4.92 1.17-1.04.78-1.56 1.81-1.56 3.09 0 1.24.34 2.18 1.02 2.82.68.64 1.58.96 2.7.96zm6.66 5.76c-.08-.44-.17-1.01-.27-1.71s-.19-1.39-.27-2.07c-.8 1.16-1.93 2.18-3.39 3.06-1.46.88-3.35 1.32-5.67 1.32-1.28 0-2.52-.18-3.72-.54-1.2-.36-2.26-.91-3.18-1.65-.92-.74-1.66-1.67-2.22-2.79-.56-1.12-.84-2.44-.84-3.96 0-3.28 1.25-5.86 3.75-7.74s6.41-2.82 11.73-2.82h3.18v-.78c0-1.92-.5-3.2-1.5-3.84-1-.64-2.4-.96-4.2-.96-1.8 0-3.49.25-5.07.75s-3.05 1.09-4.41 1.77l-1.8-7.14c1.44-.68 3.27-1.29 5.49-1.83s4.61-.81 7.17-.81c2.08 0 3.96.21 5.64.63 1.68.42 3.12 1.09 4.32 2.01 1.2.92 2.12 2.11 2.76 3.57.64 1.46.96 3.21.96 5.25v15.24c0 .36.01.77.03 1.23l.06 1.41c.02.48.04.93.06 1.35.02.42.05.77.09 1.05h-8.7z"></path></g></svg>