<?xml version="1.0" encoding="iso-8859-1"?>
<!-- Generator: Adobe Illustrator 19.0.0, SVG Export Plug-In . SVG Version: 6.00 Build 0)  -->
<svg version="1.1" id="Layer_1" xmlns="http://www.w3.org/2000/svg" xmlns:xlink="http://www.w3.org/1999/xlink" x="0px" y="0px"
	 viewBox="0 0 511.998 511.998" style="enable-background:new 0 0 511.998 511.998;" xml:space="preserve">
<circle style="fill:#464655;" cx="255.998" cy="207.997" r="13"/>
<path style="fill:#FFAA64;" d="M259.999,304.268l4-63.999c0,0,74.999-165.269,194.998-165.269c54.5-4.5,49.312,32.045,40,78.999
	c-6.673,33.652-10,88.999-93.999,77.999c0,0,132.815,105.615-15,191.998c-15.637,9.138-63,16.27-78.999,0.27
	C294.999,408.267,259.999,304.268,259.999,304.268z"/>
<g>
	<polygon style="fill:#FFC878;" points="271.999,288.268 351.998,424.267 327.998,432.267 295.998,392.267 263.999,296.268 	"/>
	<polygon style="fill:#FFC878;" points="439.997,216.268 431.997,192.268 335.998,192.268 279.999,240.268 279.999,248.268 
		327.998,240.268 375.998,224.268 	"/>
</g>
<g>
	<path style="fill:#FF9155;" d="M295.998,216.268c0,0,87.999-63.999,159.999-79.999l-8-32l-79.999,8l-79.999,95.999L295.998,216.268
		z"/>
	<path style="fill:#FF9155;" d="M271.999,264.268v-16c0,0,79.999-24,119.999-16s63.999,63.999,48,63.999
		S271.999,264.268,271.999,264.268z"/>
</g>
<path style="fill:#464655;" d="M257.01,307.032c14.532,47.845,42.414,126.092,69.863,128.423c4.247,0.359,8.418,0.543,12.513,0.543
	c42.275,0,76.483-19.285,104.271-58.691c17.67-25.056,23.02-56.104,14.67-85.192c-6.795-23.669-25.128-41.879-47.092-57.115
	c0.582,0.004,1.183,0.033,1.762,0.033c19.892,0,47.754-2.551,62-17.033c19.647-19.974,26.789-90.358,29-110.999
	c1.47-13.714-6.991-32-43.236-32c-120.488,0-203.751,161.171-203.751,172.927c0,0,10.041,5.021,28.711,5.021
	c14.31,0,33.69-2.951,57.492-13.379c12.041-5.275,24.877-6.851,37.806-7.156c0.115,0.055,0.188,0.157,0.307,0.207
	c8.689,3.646,16.567,8.031,23.701,12.96c-44.14-1.241-61.404,11.409-66.961,17.262c-40.551-6.329-70.338-5.214-72.574-5.112
	l-8.479,0.367L257.01,307.032L257.01,307.032z M387.67,133.998c-2.364,7.676-6.182,16.159-12.229,24.868
	c-34.688,15.071-60.998,33.039-79.056,47.782c17.349-26.426,43.405-59.348,75.872-83.36
	C379.93,117.614,390.479,124.881,387.67,133.998z M433.285,139.363c-12.281,3.027-23.879,6.537-34.784,10.404
	c3.046-6.938,5.05-13.563,6.331-19.633c1.134-5.375,6-9.336,11.494-9.249c7.328,0.115,13.25,1.4,18.021,3.301
	C441.587,127.073,440.853,137.498,433.285,139.363z M453.79,190.643c-28.146-10.473-59.944-12.35-83.898-11.703
	c20.568-9.957,44.597-19.016,72.036-25.457c17.34-4.07,32.385,12.908,26.619,29.76c-0.05,0.146-0.1,0.291-0.15,0.437
	C466.319,189.695,459.757,192.861,453.79,190.643z M401.88,216.963c-5.127-0.144-10.298-0.286-15.468-0.286
	c-14.837,0-32.318,1.015-49.489,8.536c-18.147,7.951-35.258,11.987-50.877,12.041c8.855-8.872,25.771-24.17,50.622-39.874
	c6.491-0.951,43.66-5.84,81.211,0.175c11.929,1.909,10.662,19.65-1.419,19.676c-0.164,0-0.328,0.001-0.492,0.001
	C411.338,217.231,406.629,217.097,401.88,216.963z M423.476,285.874c-21.496-8.658-42.946-14.693-62.808-18.885
	c9.317-3.667,25.27-7.016,51.383-5.4c8.579,0.53,16.332,5.322,20.965,12.561c0.066,0.104,0.132,0.207,0.197,0.31
	C437.313,280.925,430.577,288.734,423.476,285.874z M417.675,335.457c-11.911-12.32-24.765-28.422-31.5-45.77
	c16.804,4.885,34.079,11.224,50.954,19.43c5.868,2.854,9.563,9.055,9.139,15.566c-0.022,0.352-0.048,0.703-0.075,1.054
	C445.099,339.767,427.456,345.574,417.675,335.457z M390.87,381.107c-27.593-43.106-75.82-85.785-102.123-107.39
	c18.793,0.889,47.567,3.592,79.47,11.206c7.71,30.157,32.43,56.943,49.557,72.543c7.537,6.865,7.839,18.401,1.007,25.969
	c-0.097,0.107-0.194,0.214-0.291,0.321C410.783,392.242,397.05,390.762,390.87,381.107z M285.21,291.264
	c27.714,23.376,72.391,64.375,95.762,103.595c4.409,7.399,0.624,16.956-7.512,19.786c-0.086,0.03-0.171,0.061-0.257,0.09
	c-6.021,2.076-12.692-0.438-16.017-5.87L285.21,291.264z M270.476,297.212l66.402,108.491c3.927,6.418-0.997,14.776-8.494,14.154
	c-0.06-0.006-0.12-0.01-0.18-0.015C314.616,418.685,288.989,358.813,270.476,297.212z"/>
<path style="fill:#FFAA64;" d="M247.999,304.268v-63.999c0,0-71.999-151.999-191.998-151.999c0,0-79.343,117.991,56,143.999
	c0,0-127.999,79.999,8,183.999c0,0,56,24,71.999,8S247.999,304.268,247.999,304.268z"/>
<g>
	<polygon style="fill:#FFC878;" points="239.999,288.268 160,424.267 183.999,432.267 215.999,392.267 247.999,296.268 	"/>
	<polygon style="fill:#FFC878;" points="72,216.268 80,192.268 175.999,192.268 231.999,240.268 231.999,248.268 183.999,240.268 
		136,224.268 	"/>
</g>
<g>
	<path style="fill:#FF9155;" d="M215.999,216.268c0,0-87.999-63.999-159.999-79.999l8-32l79.999,8l79.999,95.999L215.999,216.268z"
		/>
	<path style="fill:#FF9155;" d="M239.999,264.268v-16c0,0-79.999-24-119.999-16s-64,63.999-48,63.999
		S239.999,264.268,239.999,264.268z"/>
</g>
<g>
	<path style="fill:#464655;" d="M251.196,258.619l-8.55-0.37c-2.254-0.104-32.29-1.229-73.177,5.154
		c-5.604-5.901-23.012-18.657-67.519-17.406c7.193-4.969,15.137-9.39,23.898-13.066c0.12-0.051,0.193-0.154,0.309-0.21
		c13.037,0.309,25.979,1.897,38.12,7.216c24,10.515,43.542,13.491,57.971,13.491c18.824,0,28.949-5.064,28.949-5.064
		C251.779,235.484,168.829,69.714,46,76.001c-36.643,1.876-38.812,18.708-38,30c2,27.833,10.037,90.092,29.848,110.231
		c14.365,14.603,52.096,16.801,72.151,16.801c0.584,0,1.19-0.029,1.776-0.033C89.63,248.363,62.851,272.134,56,296
		c-8.419,29.331-3.817,55.736,14,80.999c28.019,39.732,55.509,61,98.134,61c4.129,0,8.334-0.186,12.617-0.548
		c27.678-2.35,55.791-81.247,70.443-129.489L251.196,258.619L251.196,258.619z M134.99,122.687
		c32.738,24.214,59.01,57.41,76.503,84.055c-18.209-14.866-44.738-32.983-79.713-48.18c-6.097-8.781-9.946-17.335-12.33-25.075
		C116.618,124.295,127.255,116.969,134.99,122.687z M72.385,123.596c4.81-1.916,10.781-3.212,18.17-3.329
		c5.54-0.087,10.445,3.907,11.589,9.327c1.292,6.12,3.313,12.801,6.384,19.796c-12.296-4.361-24.056-7.776-35.072-10.491
		C65.824,137.018,65.083,126.506,72.385,123.596z M38.052,183.582c-0.05-0.146-0.101-0.294-0.151-0.44
		c-5.814-16.991,9.356-34.111,26.84-30.007c27.668,6.494,51.896,15.629,72.635,25.668c-24.155-0.651-56.218,1.242-84.596,11.801
		C46.763,192.841,40.146,189.648,38.052,183.582z M90.916,217.413c-0.166,0-0.331-0.001-0.496-0.001
		c-12.182-0.024-13.46-17.914-1.432-19.839c37.864-6.064,75.341-1.136,81.886-0.176c25.058,15.834,42.114,31.259,51.043,40.205
		c-15.749-0.054-33.002-4.125-51.3-12.141c-17.313-7.585-34.94-8.607-49.9-8.607c-5.213,0-10.427,0.144-15.597,0.289
		C100.333,217.278,95.585,217.413,90.916,217.413z M73.528,275.117c0.066-0.104,0.132-0.209,0.199-0.313
		c4.673-7.3,12.49-12.131,21.14-12.665c26.33-1.629,42.415,1.748,51.81,5.445c-20.027,4.226-41.656,10.312-63.33,19.041
		C76.186,289.511,69.394,281.636,73.528,275.117z M60.441,326.821c-0.028-0.354-0.053-0.708-0.076-1.063
		c-0.427-6.564,3.298-12.816,9.215-15.695c17.016-8.274,34.434-14.665,51.377-19.592c-6.791,17.493-19.752,33.729-31.762,46.15
		C79.332,346.822,61.542,340.969,60.441,326.821z M88.374,385.322c-0.098-0.107-0.195-0.216-0.293-0.324
		c-6.889-7.629-6.584-19.262,1.016-26.184c17.269-15.73,42.194-42.738,49.969-73.145c32.169-7.678,61.183-10.403,80.13-11.301
		c-26.521,21.785-75.15,64.819-102.971,108.282C109.993,392.385,96.145,393.879,88.374,385.322z M150.187,410.639
		c-3.353,5.477-10.08,8.012-16.15,5.919c-0.086-0.03-0.172-0.06-0.259-0.091c-8.203-2.854-12.02-12.489-7.574-19.95
		c23.565-39.547,68.613-80.886,96.558-104.456L150.187,410.639z M179.409,421.708c-0.061,0.005-0.121,0.01-0.182,0.016
		c-7.56,0.627-12.524-7.802-8.564-14.271l66.954-109.394C218.952,360.172,193.111,420.541,179.409,421.708z"/>
	<ellipse style="fill:#464655;" cx="255.998" cy="255.897" rx="24" ry="38.1"/>
</g>
<path d="M504.078,81.226c-7.938-8.835-21.492-13.314-40.284-13.314c-67.54,0-117.734,40.295-147.949,74.098
	c-17.923,20.053-31.966,41.337-40.895,57.953c-0.703-1.203-1.47-2.334-2.294-3.386l54.323-100.889
	c2.095-3.891,0.639-8.742-3.251-10.837c-3.89-2.094-8.742-0.64-10.837,3.251l-53.819,99.949c-1.006-0.164-2.03-0.259-3.074-0.259
	s-2.068,0.095-3.074,0.259l-53.819-99.949c-2.095-3.89-6.946-5.346-10.837-3.251c-3.89,2.095-5.346,6.946-3.251,10.837
	l54.325,100.888c-0.825,1.052-1.591,2.183-2.294,3.386c-8.929-16.616-22.971-37.9-40.895-57.953
	c-20.926-23.411-51.438-49.932-90.655-64.028c-0.023-0.009-0.046-0.02-0.07-0.027c-0.011-0.004-0.024-0.007-0.036-0.011
	c-17.381-6.234-36.467-10.032-57.189-10.032c-18.792,0-32.346,4.479-40.284,13.314C1.65,88.204-0.917,97.459,0.29,108.732
	l0.334,3.169c4.687,44.694,12.882,98.076,34.833,114.302c12.73,9.409,33.219,10.599,56.972,11.827
	c-26.949,18-38.553,40.208-43.472,57.34c-8.454,29.445-2.372,61.831,16.687,88.853c17.605,24.962,38.39,42.331,61.776,51.625
	c13.88,5.517,28.536,8.239,44.507,8.239c4.181,0,8.454-0.188,12.823-0.56c10.473-0.891,27.506-9.513,54.405-73.815
	c3.163-7.561,6.134-15.124,8.846-22.315v40.208c0,4.418,3.582,8,8,8c4.418,0,8-3.582,8-8v-40.208
	c2.712,7.191,5.684,14.755,8.846,22.315c26.899,64.303,43.932,72.925,54.405,73.815c4.371,0.372,8.642,0.56,12.823,0.56
	c15.969,0,30.628-2.723,44.507-8.239c23.386-9.294,44.17-26.663,61.776-51.625c19.059-27.022,25.141-59.408,16.687-88.853
	c-4.919-17.132-16.523-39.34-43.472-57.34c23.753-1.229,44.242-2.418,56.972-11.827c21.952-16.226,30.146-69.607,34.833-114.302
	l0.334-3.169C512.916,97.459,510.349,88.204,504.078,81.226z M329.395,150.874c19.025-20.916,46.533-44.577,81.482-57.423
	c0.444-0.066,0.889-0.164,1.33-0.31c1.346-0.446,4.077-0.266,4.928,0.299c0.091,0.582,0.26,3.697-4.458,11.166
	c-3.019,4.779-2.03,8.895-1.172,10.922c3.081,7.278,12.44,9.239,23.277,11.511c1.984,0.415,4.542,0.951,6.957,1.543
	c-2.633,1.124-5.542,2.284-8.052,3.286c-19.013,7.585-42.675,17.026-42.675,34.824c0,5.682,3.875,9.956,11.518,12.704
	c4.292,1.543,9.675,2.699,15.374,3.923c5.738,1.232,16.777,3.604,21.088,6.185c-2.768,1.709-7.418,3.917-10.796,5.522
	c-13.61,6.465-30.25,14.377-33.059,28.501c-18.859,1.596-38.164,4.744-54.804,13.064c-20.766,10.383-47.595,2.954-55.297,0.445
	c-1.243-3.725-2.852-7.149-4.766-10.2C282.827,217.782,299.793,183.419,329.395,150.874z M255.999,203.793
	c2.394,0,5.578,3.374,7.099,9.033c-2.278-0.685-4.65-1.057-7.099-1.057s-4.821,0.372-7.099,1.057
	C250.421,207.167,253.606,203.793,255.999,203.793z M95.466,93.44c0.77-0.511,3.067-0.703,4.496-0.405
	c35.501,12.744,63.408,36.692,82.642,57.839c29.602,32.545,46.569,66.908,49.123,75.962c-1.914,3.051-3.522,6.476-4.766,10.2
	c-7.718,2.514-34.537,9.937-55.297-0.445c-16.46-8.23-35.527-11.399-54.191-13.012c-2.778-14.156-19.44-22.08-33.068-28.554
	c-3.378-1.605-8.028-3.813-10.796-5.522c4.312-2.581,15.35-4.952,21.088-6.185c5.699-1.224,11.082-2.38,15.374-3.923
	c7.643-2.748,11.518-7.022,11.518-12.704c0-17.798-23.662-27.239-42.675-34.824c-2.51-1.002-5.419-2.162-8.052-3.286
	c2.415-0.592,4.972-1.128,6.957-1.543c10.837-2.271,20.196-4.232,23.277-11.511c0.858-2.027,1.847-6.143-1.172-10.922
	C95.206,97.138,95.374,94.022,95.466,93.44z M44.967,213.336c-4.373-3.232-12.79-13.577-20.02-46.539
	c-4.75-21.656-7.131-44.365-8.411-56.564l-0.338-3.206c-0.713-6.659,0.472-11.601,3.623-15.108
	c4.708-5.238,14.522-8.008,28.383-8.008c11.316,0,22.116,1.267,32.38,3.522c-2.354,5.802-1.197,13.075,3.464,21.714
	c-2.863,0.838-6.785,1.66-9.511,2.231c-12.113,2.537-25.841,5.414-25.841,16.981c0,8.678,9.143,12.325,24.289,18.368
	c7.986,3.187,17.038,6.798,23.81,10.926c4.675,2.85,6.894,5.095,7.928,6.685c-3.345,1.181-9.188,2.437-13.386,3.338
	c-7.219,1.55-14.684,3.153-20.854,5.684c-9.485,3.89-14.294,9.588-14.294,16.938c0,9.037,9.422,13.513,21.351,19.18
	c7.096,3.371,16.84,8.003,21.557,12.879c-1.599-0.084-3.187-0.166-4.762-0.248C73.602,221.037,54.018,220.025,44.967,213.336z
	 M247.999,298.479c-1.881,6.025-11.301,35.656-23.648,65.158c-24.976,59.674-38.501,63.738-40.959,63.948
	c-42.901,3.642-77.142-13.55-104.673-52.586c-16.25-23.039-21.492-50.454-14.383-75.215c7.423-25.852,27.38-46.448,57.761-59.673
	c15.089,1.627,29.959,4.563,42.412,10.789c10.614,5.308,22.083,7.065,32.628,7.064c10.47,0,20.019-1.734,26.908-3.449
	c-0.008,0.406-0.021,0.809-0.021,1.218c0,20.841,10.039,37.862,23.977,42.628v0.118H247.999z M255.999,283.698
	c-7.557,0-15.977-11.484-15.977-27.964s8.42-27.965,15.977-27.965c7.557,0,15.977,11.484,15.977,27.965
	C271.976,272.214,263.556,283.698,255.999,283.698z M447.662,299.785c7.109,24.762,1.867,52.177-14.383,75.216
	c-27.531,39.035-61.769,56.228-104.673,52.585c-2.458-0.21-15.983-4.275-40.959-63.948C275.3,334.135,265.88,304.505,264,298.48
	v-0.117c13.938-4.766,23.977-21.787,23.977-42.628c0-0.408-0.014-0.812-0.021-1.217c6.889,1.715,16.438,3.448,26.908,3.448
	c10.543,0,22.016-1.758,32.628-7.064c12.453-6.227,27.323-9.162,42.412-10.789C420.283,253.337,440.239,273.934,447.662,299.785z
	 M495.8,107.027l-0.338,3.206c-1.279,12.199-3.661,34.908-8.411,56.564c-7.23,32.962-15.647,43.307-20.02,46.539
	c-9.051,6.689-28.634,7.701-49.368,8.772c-1.366,0.07-2.743,0.143-4.127,0.215c4.729-4.864,14.446-9.482,21.525-12.846
	c11.929-5.667,21.351-10.143,21.351-19.18c0-7.351-4.809-13.049-14.294-16.938c-6.17-2.53-13.635-4.134-20.854-5.684
	c-4.197-0.901-10.041-2.157-13.386-3.338c1.034-1.59,3.252-3.835,7.928-6.685c6.772-4.128,15.824-7.739,23.81-10.926
	c15.146-6.043,24.289-9.69,24.289-18.368c0-11.567-13.729-14.444-25.841-16.981c-2.726-0.571-6.648-1.394-9.511-2.231
	c4.691-8.696,5.832-16.007,3.416-21.827c10.099-2.18,20.71-3.409,31.825-3.409c13.861,0,23.676,2.77,28.383,8.008
	C495.328,95.427,496.513,100.368,495.8,107.027z"/>
<g>
</g>
<g>
</g>
<g>
</g>
<g>
</g>
<g>
</g>
<g>
</g>
<g>
</g>
<g>
</g>
<g>
</g>
<g>
</g>
<g>
</g>
<g>
</g>
<g>
</g>
<g>
</g>
<g>
</g>
</svg>
