<?xml version="1.0" encoding="iso-8859-1"?>
<!-- Generator: Adobe Illustrator 19.0.0, SVG Export Plug-In . SVG Version: 6.00 Build 0)  -->
<svg version="1.1" id="Layer_1" xmlns="http://www.w3.org/2000/svg" xmlns:xlink="http://www.w3.org/1999/xlink" x="0px" y="0px"
	 viewBox="0 0 512 512" style="enable-background:new 0 0 512 512;" xml:space="preserve">
<path style="fill:#CD916E;" d="M374.406,174.056c-0.048-0.256-0.146-0.499-0.29-0.717l-1.264-1.922l0.345-2.274
	c2.069-13.651,1.071-26.81-2.964-39.109l-0.495-1.509l0.316-1.557c6.116-30.081,3.77-88.878-16.54-121.035
	c-0.368-0.584-1-0.933-1.691-0.933c-0.146,0-0.293,0.017-0.435,0.048c-0.805,0.179-1.41,0.821-1.539,1.634l-0.052,0.323
	l-0.086,0.314c-2.358,8.606-29.739,54.307-35.205,63.381l-2.268,3.766l-4.274-1.027c-16.403-3.942-31.636-4.531-39.257-4.531
	c-2.215,0-3.736,0.05-4.446,0.079l-0.249,0.011l-0.249-0.01c-0.708-0.03-2.225-0.079-4.43-0.079c-7.659,0-22.965,0.594-39.429,4.571
	l-4.278,1.034l-2.271-3.77c-5.469-9.081-32.871-54.813-35.231-63.423l-0.086-0.315l-0.032-0.2c-0.128-0.802-0.874-1.649-1.675-1.779
	C176.225,5.009,176.118,5,176.012,5c-0.69,0-1.322,0.349-1.691,0.933c-20.334,32.196-16.743,82.373-15.129,97.176l0.553,3.484
	l-2.497,2.181l-7.058,10.133c-3.664,5.26-2.095,12.522,3.412,15.802l0,0c-1.938,4.787-3.113,9.975-3.49,15.42l-0.019,0.273
	l-0.043,0.27c-0.02,0.125-0.029,0.208-0.033,0.264l0.02,0.422l-0.011,0.252c-0.4,9.394,1.564,17.24,3.282,22.168l0.51,1.463
	l-0.262,1.527c-8.504,49.598,0.716,108.086,24.665,156.455c2.65,5.352,5.494,10.569,8.245,15.615
	c13.543,24.846,27.548,50.538,27.548,106.164c0,28.617,26.397,50,50,50h0.406c23.603,0,50-21.383,50-50
	c0-55.626,14.004-81.318,27.548-106.164c2.75-5.046,5.595-10.264,8.245-15.615C374.688,283.785,383.732,224.282,374.406,174.056z"/>
<g>
	<path style="fill:#96695F;" d="M170.316,25.563c-8.618,23.224-9.007,50.517-7.816,69.324l0.676,10.675l8.757-6.143
		c13.146-9.221,25.568-15.377,33.673-18.917l6.261-2.734l-3.52-5.855c-12.186-20.271-21.304-36.108-27.104-47.068L174.978,13
		L170.316,25.563z"/>
	<path style="fill:#96695F;" d="M367.689,120.936c1.311-20.683,4.551-61.095-8.765-89.783c-1.87-4.029-3.499-8.167-5.044-12.333
		l-2.384-5.756l-7.191,13.591c-6.655,12.578-17.12,30.751-31.104,54.014C334.909,89.065,352.348,109.351,367.689,120.936z"/>
</g>
<path style="fill:#E1A178;" d="M263.007,265L263.007,265c-17.673,0-32,14.327-32,32v136h64V297
	C295.007,279.327,280.68,265,263.007,265z"/>
<g>
	<path style="fill:#96695F;" d="M307.517,418.365c-2.698-12.899-18.767-18.735-28.268-9.603c-0.082,0.079-0.162,0.158-0.242,0.238
		c-8,8-16,8-16,8s-8,0-16-8c-0.08-0.08-0.161-0.159-0.242-0.238c-9.502-9.132-25.569-3.296-28.269,9.603
		c-1.816,8.681-3.489,19.658-3.489,30.635c0,24,8,56,48,56s48-32,48-56C311.007,438.023,309.333,427.045,307.517,418.365z"/>
	<path style="fill:#96695F;" d="M309.007,77c0,0-92-32.667-155,41c0,0,4.333,8.415,1,30.748c0,0,46,14.333,103-54
		c0,0,11.333,21,8,25C266.007,119.748,306.007,98.333,309.007,77z"/>
</g>
<path style="fill:#6E575A;" d="M264.03,483.61c-18.669,0-31.817-4.978-41.03-12.61c5.704,17.092,17.592,30.982,41.03,30.982
	s35.326-13.89,41.03-30.982C295.847,478.632,282.699,483.61,264.03,483.61z"/>
<path d="M192.007,192c-8.823,0-16,7.178-16,16s7.177,16,16,16c8.822,0,16-7.178,16-16S200.829,192,192.007,192z"/>
<path d="M336.007,192c-8.822,0-16,7.178-16,16s7.178,16,16,16s16-7.178,16-16S344.829,192,336.007,192z"/>
<path d="M380.302,173.972c-0.2-1.08-0.609-2.067-1.178-2.93c2.521-16.635,0.478-30.686-3.195-41.879
	c6.349-31.227,3.874-91.836-17.346-125.435c-1.805-2.856-5.207-4.271-8.506-3.536c-3.208,0.715-5.642,3.315-6.158,6.542
	c-1.356,4.95-15.348,29.975-34.558,61.871c-22.106-5.312-42.136-4.746-45.354-4.613c-3.23-0.133-23.349-0.7-45.517,4.656
	c-19.227-31.921-33.227-56.961-34.584-61.914c-0.516-3.227-2.95-5.827-6.157-6.542c-3.298-0.734-6.702,0.68-8.506,3.536
	c-21.425,33.922-17.67,85.995-16.009,101.146c0.014,0.129,0.042,0.253,0.061,0.38c-8.455,7.384-16.682,16.05-23.816,26.122
	c-2.554,3.605-1.701,8.598,1.904,11.152C132.787,143.523,134.4,144,136,144c2.507,0,4.976-1.175,6.535-3.376
	c1.761-2.486,3.603-4.869,5.499-7.168c-2.289,5.651-3.516,11.5-3.915,17.257c-0.067,0.42-0.112,0.848-0.112,1.287
	c0,0.119,0.013,0.235,0.018,0.353c-0.375,8.786,1.126,17.271,3.611,24.4c-8.72,50.86,0.619,110.482,25.201,160.131
	c2.699,5.451,5.574,10.725,8.354,15.824c13.184,24.186,26.816,49.196,26.816,103.292c0,32.051,29.565,56,56,56h0.406
	c26.435,0,56-23.949,56-56c0-54.097,13.632-79.106,26.815-103.292c2.78-5.1,5.654-10.374,8.354-15.824
	C380.612,286.33,389.854,225.428,380.302,173.972z M175.772,26.648c5.013,9.474,13.353,24.209,27.264,47.354
	c-8.506,3.715-21.247,10.054-34.717,19.503C167.296,77.355,167.238,49.646,175.772,26.648z M341.243,329.784
	c-2.559,5.169-5.232,10.074-8.063,15.267c-14.144,25.946-28.768,52.775-28.768,110.95c0,24.417-23.691,40-40,40h-0.406
	c-16.31,0-40-15.583-40-40c0-58.174-14.625-85.004-28.768-110.95c-2.83-5.193-5.503-10.098-8.063-15.267
	c-21.162-42.741-30.34-93.225-25.495-137.981c0.995-0.212,1.968-0.599,2.858-1.21c3.641-2.503,4.563-7.484,2.06-11.125
	c-0.91-1.324-1.823-3.014-2.669-4.979c-0.155-1.307-0.631-2.538-1.359-3.595c-1.091-3.307-1.942-7.115-2.334-11.165
	c38.634-2.506,73.777-22.7,102.066-58.793c2.726-3.478,2.116-8.506-1.361-11.231c-3.478-2.726-8.506-2.116-11.231,1.361
	c-25.177,32.123-54.824,49.753-88.238,52.535c1.042-3.81,2.684-7.551,5.104-11.035c2.521-3.628,1.624-8.614-2.004-11.135
	c-1.178-0.819-2.5-1.271-3.834-1.392c23.303-21.558,49.741-32.064,56.456-34.505c23.163-6.625,46.173-5.556,46.396-5.544
	c0.273,0.014,0.554,0.014,0.828,0c0.186-0.008,16.438-0.766,35.351,2.909c-10.961,13.04-26.8,25.433-38.438,29.562
	c-4.164,1.478-6.342,6.051-4.864,10.215c1.164,3.279,4.248,5.327,7.54,5.327c0.888,0,1.791-0.149,2.675-0.462
	c17.122-6.076,39.456-24.586,51.951-43.057c0.406-0.6,0.711-1.238,0.936-1.893c0.137-0.187,0.268-0.381,0.39-0.582
	c16.887-27.874,26.56-44.893,32.123-55.413c8.715,22.655,11.714,53.317,10.632,77.502c-2.802-3.61-4.904-5.624-5.239-5.938
	c-3.215-3.009-8.241-2.841-11.265,0.359c-3.025,3.199-2.882,8.254,0.302,11.295c1.124,1.074,27.377,26.815,13.834,71.884
	c-1.271,4.231,1.128,8.692,5.359,9.964c0.348,0.104,0.696,0.176,1.044,0.232C371.57,236.627,362.392,287.072,341.243,329.784z"/>
<path d="M253.341,458.038c-3.724-3.332-5.825-13.273-5.354-25.328c0.014-0.363,0.02-0.604,0.02-0.71c0-4.418-3.582-8-8-8
	c-4.375,0-7.929,3.511-7.999,7.868l-0.009,0.217c-0.399,10.222,0.456,28.735,10.673,37.877c1.527,1.366,3.433,2.038,5.332,2.038
	c2.196,0,4.385-0.9,5.965-2.666C256.915,466.042,256.634,460.984,253.341,458.038z"/>
<path d="M295.921,431.873c-0.068-4.36-3.623-7.873-7.999-7.873c-4.418,0-8,3.582-8,8c0,0.105,0.005,0.344,0.019,0.704
	c0.456,11.902-1.652,22.107-5.245,25.392c-3.262,2.981-3.488,8.042-0.507,11.302c1.578,1.727,3.738,2.602,5.907,2.602
	c1.927,0,3.86-0.693,5.396-2.096c9.991-9.135,10.828-27.612,10.438-37.813L295.921,431.873z"/>
<g>
</g>
<g>
</g>
<g>
</g>
<g>
</g>
<g>
</g>
<g>
</g>
<g>
</g>
<g>
</g>
<g>
</g>
<g>
</g>
<g>
</g>
<g>
</g>
<g>
</g>
<g>
</g>
<g>
</g>
</svg>
