<?xml version="1.0" encoding="iso-8859-1"?>
<!-- Generator: Adobe Illustrator 19.0.0, SVG Export Plug-In . SVG Version: 6.00 Build 0)  -->
<svg version="1.1" id="Layer_1" xmlns="http://www.w3.org/2000/svg" xmlns:xlink="http://www.w3.org/1999/xlink" x="0px" y="0px"
	 viewBox="0 0 512 512" style="enable-background:new 0 0 512 512;" xml:space="preserve">
<path style="fill:#595966;" d="M256,505c-4.283,0-11.503-4.176-24.689-40.282c-0.42-1.15-0.845-2.34-1.271-3.54l-1.103-3.105
	l-3.097-1.129c-0.05-0.019-0.102-0.036-0.151-0.06c-12.03-6.436-23.389-16.521-32.844-29.165l-3.346-4.474l-5.104,2.271
	c-0.134,0.06-0.271,0.09-0.404,0.09c-0.073,0-0.146-0.009-0.222-0.027c-36.022-8.664-62.6-24.869-81.254-49.542
	C81.603,348.379,71,309.339,71,260c0-9.696,0.399-17.562,1.257-24.752l0.055-0.461l-0.005-0.575
	c0.134-1.667,0.395-3.332,0.796-5.087l0.049-0.213l0.035-0.216c1.225-7.458,2.962-14.663,5.16-23.786
	c0.532-2.205,1.091-4.528,1.678-6.996c3.583-15.076,4.077-29.89,1.469-44.028c-3.773-20.455-5.706-42.631,5.604-66.193
	C107.346,45.509,197.67,12.116,240.105,7.991l0.126-0.013c3.176-0.367,6.454-0.626,9.742-0.771C252.458,7.068,254.457,7,256,7
	c1.537,0,3.509,0.067,5.864,0.201c3.789,0.165,7.37,0.454,10.739,0.863l1.615,0.169l0.242,0.031l0.167,0.013
	c0.102,0.01,0.42,0.046,0.42,0.046c22.533,2.419,54.929,12.453,82.534,25.563c17.964,8.531,42.519,22.438,57.483,40.242l0.535,0.637
	l0.929,0.681c0.221,0.162,0.328,0.307,0.397,0.49l0.348,0.924l0.591,0.792c2.496,3.348,4.563,6.726,6.146,10.041
	c11.05,23.145,9.254,45.122,6.039,63.568c-2.615,15-2.102,30.166,1.526,45.078c0.552,2.268,1.081,4.417,1.586,6.472l0.033,0.133
	c2.61,10.606,4.672,18.983,5.982,27.901l0.027,0.172c0.132,0.764,0.241,1.555,0.324,2.352l0.02,0.167
	C440.539,241.234,441,249.644,441,260c0,49.339-10.603,88.379-31.513,116.036c-18.654,24.673-45.232,40.878-81.253,49.542
	c-0.083,0.02-0.163,0.029-0.241,0.029c-0.133,0-0.266-0.029-0.394-0.086l-5.104-2.269l-3.345,4.473
	c-9.453,12.639-20.808,22.722-32.839,29.158c-0.042,0.021-0.093,0.038-0.144,0.057l-3.102,1.127l-1.104,3.109
	c-0.427,1.2-0.852,2.39-1.272,3.541C267.503,500.824,260.283,505,256,505z"/>
<g>
	<path style="fill:#FFCE56;" d="M225.926,237.407V87.037H105.63c0,0-13.525,14.503-26.863,45.935
		c0.43,7.152,1.476,14.129,2.728,20.914c2.608,14.139,2.114,28.952-1.469,44.028c-0.587,2.468-1.146,4.791-1.678,6.996
		c-2.198,9.123-3.935,16.328-5.16,23.786l-0.035,0.216l-0.049,0.213c-0.402,1.755-0.663,3.42-0.796,5.087l0.005,0.575l-0.055,0.461
		C71.399,242.438,71,250.304,71,260c0,1.362,0.011,2.714,0.027,4.061C96.603,250.808,149.023,230.999,225.926,237.407z"/>
	<path style="fill:#FFCE56;" d="M286.074,87.037v150.37c76.902-6.408,129.323,13.4,154.898,26.653
		c0.016-1.347,0.027-2.698,0.027-4.061c0-10.356-0.461-18.766-1.451-26.464l-0.02-0.167c-0.083-0.797-0.192-1.588-0.324-2.352
		l-0.027-0.172c-1.31-8.918-3.372-17.295-5.982-27.901l-0.033-0.133c-0.505-2.055-1.035-4.204-1.586-6.472
		c-3.628-14.912-4.142-30.078-1.526-45.078c1.108-6.357,2.047-13.134,2.35-20.233c-13.062-30.088-26.03-43.991-26.03-43.991H286.074
		V87.037z"/>
</g>
<path style="fill:#D7D2C8;" d="M398,323.887c0-82.166-85.2-97.105-85.2-97.105H199.2c0,0-85.2,14.939-85.2,97.105
	c0,42.246,38.588,97.962,134.946,118.113h14.108C359.412,421.849,398,366.133,398,323.887z"/>
<path style="fill:#464655;" d="M250.918,500.007c-5.507-5.813-12.507-20.701-20.243-43.053
	c-7.771-22.45-16.516-53.068-25.288-88.545C189.14,302.696,177,237.97,177,224c0-13.83,11.855-41.152,28.83-66.442
	C224.558,129.657,243.313,113,256,113c12.687,0,31.442,16.657,50.17,44.558C323.145,182.848,335,210.17,335,224
	c0,13.97-12.14,78.696-28.388,144.408c-8.772,35.478-17.516,66.096-25.288,88.547c-7.736,22.351-14.736,37.238-20.243,43.052
	L256,505.373L250.918,500.007z"/>
<g>
	<path style="fill:#595966;" d="M222.034,436.845c-5.495-17.84-11.215-38.565-17.003-61.602
		c-5.251-20.898-10.599-43.993-15.465-66.788l-3.743-17.532l-9.127,15.429C171.373,315.348,169,329.426,169,352
		c0,34.393,16.409,70.597,41.804,92.233l18.31,15.601L222.034,436.845z"/>
	<path style="fill:#595966;" d="M343,352c0-23.181-2.273-36.323-7.845-45.363l-9.158-14.857l-3.647,17.067
		c-4.84,22.652-10.159,45.612-15.381,66.396c-5.791,23.046-11.511,43.771-17.003,61.601l-7.082,22.991l18.312-15.603
		C326.591,422.596,343,386.393,343,352z"/>
</g>
<g>
	<path style="fill:#D7D2C8;" d="M230.834,72.223c-21.508,5.868-45.885,12.518-66.634,1.205
		c-25.191-13.735-47.224-12.455-69.336,4.033c-0.04,0.03-0.083,0.054-0.124,0.083c-2.395,3.158-4.406,6.371-5.969,9.627
		c-11.708,24.392-8.886,47.042-5.323,66.358c2.962,16.058,2.563,32.8-1.165,49.8c7.815-4.422,16.497-6.869,24.775-6.869
		c12.417,0,20.29,7.223,26.617,13.026c1.709,1.567,6.098,5.533,7.324,6.514c12.274-1.585,22.667-2.333,31.686-5.706
		c6.015-18.106,17.497-39.444,28.91-56.448c9.503-14.158,25.42-35.158,42.428-46.018l3.319-39.83
		C242.039,69.169,236.511,70.674,230.834,72.223z"/>
	<path style="fill:#D7D2C8;" d="M403.79,201.662c8.76,0,19.942,2.594,28.21,7.278c-4.364-18.388-6.946-37.082-3.722-55.581
		c3.607-20.696,5.363-43.163-6.12-67.214c-1.865-3.906-4.409-7.855-7.569-11.815c-22.645-15.924-45.308-16.76-71.108-2.691
		c-8.708,4.75-18.026,6.503-27.514,6.504c-14.402,0-29.204-4.039-42.907-7.778c-1.362-0.371-2.714-0.739-4.06-1.104l4.156,49.87
		c12.432,11.673,23.441,26.526,30.804,37.496c10.031,14.945,22.272,34.69,29.04,51.373c14.728,0.36,21.785,6.125,40,9
		C378.807,212.21,393.85,201.662,403.79,201.662z"/>
</g>
<g>
	<path style="fill:#C3BEAF;" d="M101,72c16,0,51,32,83,96V75C151.091,63.279,121.979,57.048,101,72z"/>
	<path style="fill:#C3BEAF;" d="M411,72c-16,0-51,32-83,96V75C358.883,64.646,387.575,58.346,411,72z"/>
</g>
<path style="fill:#82C35F;" d="M408,70.584c0,0-27.5-29.584-70.186-45.884c-22.083-8.433-48.386-14.037-66.556-15.504
	c0,0-0.257-0.022-0.339-0.028l-0.134-0.008l-0.195-0.019l-0.589-0.047C265.482,9.033,260.785,9,255.897,9
	c-4.876,0-9.563,0.032-14.072,0.095C207.114,11.985,170.667,26,145,38c-4.981,2.329-44.975,29.548-46,34
	c39-27.333,84,6.359,84,6.359l15.068-1.299C221.467,62.777,241.617,63,255,63c13.07,0,34.593,0.896,57.481,13.688L333,78.359
	C333,78.359,352.699,46.201,408,70.584z"/>
<path style="fill:#E6E1D7;" d="M198.068,77.061c-4.575,2.793-9.271,6.129-14.068,10.142c-21.317,17.83-1.263,39.221-16,69.299
	c-14.737,30.077,18.338,32.724,30,32.724c20,0,58,5.775,58,5.775s38-5.775,58-5.775c11.662,0,44.737-2.646,30-32.724
	s5.626-51.844-16-69.299c-5.188-4.188-10.388-7.647-15.519-10.515C289.593,63.896,268.07,63,255,63
	C241.617,63,221.467,62.777,198.068,77.061z"/>
<g>
	<path style="fill:#464655;" d="M256,504c26.667,0,80-250.667,80-280s-50.667-112-80-112s-80,82.667-80,112S229.333,504,256,504z"/>
	<path style="fill:#464655;" d="M316.016,127.211c1.031,0,2.078-0.203,3.086-0.625c4.039-1.711,5.969-6.32,4.297-10.383
		c-0.289-0.695-7.211-17.039-24.578-19.383c-4.477-0.57-8.414,2.484-9,6.859c-0.586,4.383,2.484,8.406,6.859,9
		c8.133,1.094,11.797,9.336,11.953,9.68C309.945,125.383,312.906,127.211,316.016,127.211z"/>
	<path style="fill:#464655;" d="M195.984,127.211c-1.031,0-2.078-0.203-3.086-0.625c-4.039-1.711-5.969-6.32-4.297-10.383
		c0.289-0.695,7.211-17.039,24.578-19.383c4.477-0.57,8.414,2.484,9,6.859c0.586,4.383-2.484,8.406-6.859,9
		c-8.133,1.094-11.797,9.336-11.953,9.68C202.055,125.383,199.094,127.211,195.984,127.211z"/>
</g>
<path d="M446.492,232.644c-0.099-0.951-0.228-1.89-0.388-2.815c-1.356-9.232-3.417-17.613-6.111-28.557
	c-0.514-2.089-1.053-4.276-1.615-6.587c-3.399-13.97-3.881-28.175-1.432-42.221c3.404-19.534,5.281-42.864-6.618-67.786
	c-1.852-3.878-4.171-7.614-6.852-11.209c-0.521-1.382-1.423-2.638-2.694-3.585c-0.119-0.089-0.239-0.171-0.358-0.259
	c-15.399-18.322-39.941-32.612-59.839-42.062c-28.266-13.424-61.532-23.703-84.79-26.2c-0.188-0.023-0.378-0.043-0.568-0.061
	L275.194,1.3c-0.083-0.011-0.166-0.021-0.249-0.029l-1.498-0.156c-3.546-0.431-7.309-0.734-11.186-0.902
	C259.769,0.071,257.663,0,256,0c-1.674,0-3.805,0.072-6.334,0.215c-3.455,0.151-6.899,0.424-10.238,0.81
	C197.194,5.13,103.027,38.332,80.788,84.663c-12.177,25.369-10.165,48.873-6.177,70.492c2.431,13.176,1.961,27.017-1.395,41.14
	c-0.585,2.46-1.143,4.775-1.673,6.976c-2.229,9.251-3.999,16.598-5.262,24.291c-0.452,1.974-0.783,4.002-0.951,6.094
	c-0.021,0.257-0.026,0.512-0.023,0.764C64.447,241.621,64,249.617,64,260c0,50.897,11.079,91.357,32.929,120.258
	c19.67,26.018,47.54,43.068,85.2,52.126c1.778,0.428,3.557,0.218,5.109-0.473c9.822,13.134,21.809,24.009,35.152,31.146
	c0.344,0.185,0.696,0.333,1.053,0.463c0.433,1.22,0.865,2.429,1.292,3.599C238.339,504.368,247.072,512,256,512
	c8.928,0,17.661-7.632,31.265-44.881c0.427-1.17,0.859-2.379,1.293-3.6c0.357-0.13,0.711-0.279,1.056-0.464
	c13.339-7.137,25.322-18.008,35.142-31.138c1.004,0.446,2.104,0.689,3.237,0.689c0.619,0,1.249-0.072,1.877-0.224
	c37.661-9.058,65.53-26.108,85.2-52.126C436.921,351.357,448,310.897,448,260C448,248.844,447.482,240.347,446.492,232.644z
	 M241.041,16.943c0.052-0.005,0.104-0.011,0.155-0.017c3-0.349,6.102-0.594,9.219-0.729c0.035-0.001,0.071-0.003,0.106-0.005
	C252.74,16.066,254.634,16,256,16c1.354,0,3.223,0.065,5.407,0.19c0.037,0.002,0.074,0.004,0.111,0.005
	c3.506,0.151,6.891,0.424,10.061,0.812c0.059,0.007,0.118,0.014,0.177,0.02l1.44,0.149c0.177,0.021,0.358,0.04,0.549,0.056
	c0.087,0.012,0.174,0.022,0.261,0.032c21.616,2.305,52.906,12.021,79.713,24.753c8.458,4.017,16.213,8.198,23.204,12.481
	c-11.965,0.164-24.238,3.652-36.755,10.479c-13.312,7.259-30.669,2.522-49.046-2.491C279.435,59.298,267.35,56,255.997,56
	s-23.438,3.298-35.125,6.486c-18.376,5.014-35.734,9.749-49.045,2.491c-12.643-6.895-25.036-10.379-37.115-10.479
	C168.93,33.945,215.202,19.437,241.041,16.943z M176,352c0-24.35,2.876-35.587,6.72-42.084
	c4.664,21.847,10.039,45.214,15.521,67.033c5.832,23.209,11.614,44.137,17.103,61.956C191.87,418.905,176,384.998,176,352z
	 M256,495.193c-2.495-2.634-8.662-11.498-18.71-40.528c-7.704-22.257-16.386-52.665-25.107-87.937
	C196.311,302.534,184,237.292,184,224c0-12.377,11.625-38.679,27.642-62.541C230.866,132.819,247.772,120,256,120
	s25.134,12.819,44.358,41.459C316.375,185.321,328,211.623,328,224c0,13.292-12.311,78.534-28.183,142.729
	c-8.721,35.271-17.403,65.68-25.107,87.937C264.662,483.695,258.495,492.56,256,495.193z M296.656,438.904
	c5.489-17.818,11.271-38.746,17.103-61.955c5.449-21.688,10.793-44.905,15.438-66.64C333.363,317.07,336,327.579,336,352
	C336,384.996,320.13,418.904,296.656,438.904z M335.971,414.188C346.067,395.152,352,373.388,352,352
	c0-39.603-6.864-49.469-18.167-61.011l-0.507-0.519C339.714,258.879,344,233.045,344,224c0-18.121-15.247-48.946-30.357-71.458
	C301.474,134.413,277.804,104,256,104s-45.474,30.413-57.643,48.542C183.247,175.054,168,205.879,168,224
	c0,9.042,4.283,34.859,10.668,66.436C168.054,299.861,160,310.794,160,352c0,21.388,5.933,43.152,16.029,62.188
	C110.581,394.727,80,345.447,80,260c0-12.462,0.666-21.085,1.993-29.351c3.651-14.447,19.094-23.149,29.937-23.149
	c4.779,0,8.295,2.909,13.517,7.699c6.599,6.054,16.57,15.2,31.613,7.093c3.889-2.098,5.342-6.949,3.245-10.839
	c-2.097-3.889-6.949-5.34-10.838-3.245c-4.412,2.379-6.016,1.793-13.203-4.799c-5.784-5.306-12.982-11.909-24.333-11.909
	c-7.568,0-15.505,2.237-22.65,6.28c3.409-15.542,3.773-30.847,1.065-45.527c-3.257-17.659-5.836-38.367,4.867-60.666
	c1.429-2.977,3.268-5.913,5.457-8.801c0.037-0.027,0.076-0.049,0.113-0.076c20.215-15.073,40.357-16.244,63.388-3.687
	c18.968,10.342,41.254,4.263,60.917-1.103c11.162-3.045,21.704-5.922,30.913-5.922c9.209,0,19.751,2.877,30.913,5.922
	c11.854,3.234,24.658,6.729,37.117,6.729c8.208-0.001,16.268-1.518,23.801-5.626c22.318-12.17,41.923-11.446,61.512,2.328
	c2.734,3.426,4.935,6.842,6.548,10.221c9.933,20.805,8.415,40.24,5.294,58.144c-2.789,16.002-2.282,32.174,1.493,48.08
	c-7.152-4.053-15.1-6.296-22.677-6.296c-11.351,0-18.549,6.604-24.333,11.909c-7.188,6.596-8.793,7.178-13.204,4.799
	c-3.887-2.095-8.741-0.645-10.838,3.245s-0.644,8.742,3.245,10.839c15.042,8.109,25.014-1.039,31.613-7.093
	c5.222-4.79,8.738-7.699,13.517-7.699c11.201,0,27.312,9.285,30.26,24.598c1.158,7.855,1.74,16.266,1.74,27.902
	C432,345.448,401.419,394.727,335.971,414.188z"/>
<path d="M120,104.125c-9.57,0-16,11.252-16,28s6.43,28,16,28s16-11.252,16-28S129.57,104.125,120,104.125z"/>
<path d="M392,160.125c9.57,0,16-11.252,16-28s-6.43-28-16-28s-16,11.252-16,28S382.43,160.125,392,160.125z"/>
<g>
</g>
<g>
</g>
<g>
</g>
<g>
</g>
<g>
</g>
<g>
</g>
<g>
</g>
<g>
</g>
<g>
</g>
<g>
</g>
<g>
</g>
<g>
</g>
<g>
</g>
<g>
</g>
<g>
</g>
</svg>
