<?xml version="1.0" encoding="iso-8859-1"?>
<!-- Generator: Adobe Illustrator 19.0.0, SVG Export Plug-In . SVG Version: 6.00 Build 0)  -->
<svg version="1.1" id="Layer_1" xmlns="http://www.w3.org/2000/svg" xmlns:xlink="http://www.w3.org/1999/xlink" x="0px" y="0px"
	 viewBox="0 0 512.003 512.003" style="enable-background:new 0 0 512.003 512.003;" xml:space="preserve">
<path style="fill:#FFD2B9;" d="M254.67,484.015c-82.993-0.754-175.476-36.405-174.558-137.397
	c0.8-87.993,56.754-150.151,57.128-191.352c-2.396-7.945-8.569-12.149-23.387-0.341C46.028,208.973,7.358,27.887,8.017,27.989
	c134.695,20.679,128.34,68.314,181.583,86.224c13.929-4.168,40.017-6.162,66.405-6.059c26.389-0.103,52.477,1.89,66.405,6.059
	c53.243-17.909,46.889-65.545,181.583-86.224c0.659-0.102-38.012,180.986-105.837,126.935c-14.818-11.809-20.991-7.604-23.387,0.341
	c0.375,41.201,56.329,103.359,57.128,191.352c0.918,100.991-91.948,136.643-174.941,137.397h-2.288V484.015z"/>
<g>
	<path style="fill:#EBB4A0;" d="M358.001,142.007c-7.625-26.125,0-43.998,16.034-63.432c12.688-15.378,25.625-20.558,38.963-26.564
		c28.46-12.816,58.747-14.444,92.352-21.795c-22.355,83.792-46.717,124.324-74.353,131.79
		C405.306,168.947,378.333,134.007,358.001,142.007z"/>
	<path style="fill:#EBB4A0;" d="M152.01,143.007c7.625-26.125,1.356-44.998-14.679-64.432
		c-12.688-15.378-25.625-20.558-38.962-26.564C69.909,39.194,39.622,37.566,6.017,30.216
		c22.355,83.792,46.717,124.324,74.353,131.79C106.058,168.947,131.677,135.007,152.01,143.007z"/>
	<path style="fill:#EBB4A0;" d="M336.08,366.565c0.409,44.92-55.732,29.43-79.73,29.648c-23.498,0.214-79.848,16.726-80.256-28.194
		c-0.417-45.878,35.059-83.396,79.238-83.797C299.51,283.821,335.663,320.686,336.08,366.565z"/>
</g>
<path style="fill:#D7A091;" d="M192.354,396.795c8.295,32.424,37.996,55.654,64.504,55.413
	c26.508-0.241,55.272-25.002,63.486-56.577L192.354,396.795z"/>
<path d="M359.855,211.981c-8.822,0.08-15.933,7.323-15.853,16.144c0.08,8.742,7.257,15.853,15.997,15.853
	c0.024,0,0.123,0,0.146-0.001c4.274-0.039,8.276-1.739,11.27-4.789c2.995-3.05,4.623-7.083,4.583-11.354
	c-0.079-8.743-7.256-15.854-15.997-15.854C359.977,211.979,359.879,211.98,359.855,211.981z M360.001,235.979L360,231.507
	l0.001-3.528V235.979z"/>
<path d="M256.046,276.219l-0.787,0.003c-48.519,0.441-87.621,41.653-87.165,91.87c0.133,14.657,5.444,25.429,15.785,32.014
	c0.429,0.273,0.87,0.536,1.315,0.794c9.562,33.522,40.378,59.31,71.234,59.31c0.166,0,0.336-0.001,0.503-0.002
	c14.853-0.135,30.417-6.718,43.821-18.537c12.738-11.23,22.17-26.064,26.752-41.956c2.364-1.417,4.597-3.119,6.624-5.164
	c6.712-6.773,10.06-16.212,9.952-28.058c-0.219-24.128-9.45-46.782-25.991-63.789C301.478,285.624,279.444,276.219,256.046,276.219z
	 M256.785,444.209c-0.107,0.001-0.214,0.001-0.321,0.001c-18.19,0-41.091-13.989-52.073-37.467c3.384,0.4,7.016,0.606,10.925,0.606
	c8.898,0,17.925-0.992,25.891-1.867c5.775-0.635,11.229-1.234,15.214-1.271l0.441-0.002c4.057,0,9.422,0.488,15.1,1.005
	c7.241,0.659,15.448,1.406,23.54,1.406c3.768,0,8.082-0.145,12.552-0.713C297.657,427.459,276.371,444.031,256.785,444.209z
	 M322.762,383.288c-4.889,4.934-13.806,7.333-27.26,7.333c-7.366,0-15.187-0.712-22.089-1.34c-3.167-0.288-6.237-0.566-9.135-0.767
	l-0.076-8.374c-0.04-4.393-3.613-7.927-7.998-7.927c-0.024,0-0.049,0-0.074,0c-4.418,0.04-7.967,3.654-7.927,8.072l0.076,8.382
	c-2.8,0.25-5.769,0.575-8.821,0.911c-7.557,0.831-16.122,1.771-24.143,1.771c-27.255,0-31.115-11.248-31.226-23.404
	c-0.376-41.394,31.615-75.364,71.312-75.725l0.642-0.002c39.347,0,71.662,33.384,72.035,74.419
	C328.149,374.162,326.409,379.608,322.762,383.288z"/>
<path d="M223.199,331.725c-0.025,0-0.123,0.001-0.147,0.001c-8.822,0.081-15.933,7.323-15.853,16.145
	c0.08,8.742,7.256,15.853,15.997,15.853c0.024,0,0.123-0.001,0.147-0.001c4.274-0.039,8.276-1.739,11.27-4.789
	c2.995-3.05,4.623-7.083,4.583-11.354C239.116,338.837,231.941,331.725,223.199,331.725z M223.197,349.934v-2.209l0.002,8
	L223.197,349.934z"/>
<path d="M287.472,331.725c-0.025,0-0.123,0.001-0.147,0.001c-8.822,0.081-15.933,7.323-15.853,16.144
	c0.079,8.743,7.255,15.854,15.997,15.854c0.024,0,0.123-0.001,0.147-0.001c8.822-0.08,15.933-7.322,15.853-16.143
	C303.389,338.837,296.214,331.725,287.472,331.725z M287.469,350.001v-2.276l0.002,8L287.469,350.001z"/>
<path d="M152.155,211.981c-0.024-0.001-0.122-0.001-0.146-0.001c-8.742,0-15.917,7.113-15.997,15.853
	c-0.04,4.273,1.588,8.307,4.583,11.355c2.995,3.049,6.997,4.75,11.27,4.789c0.024,0,0.126-0.002,0.146,0.001
	c8.741,0,15.917-7.112,15.997-15.854C168.089,219.304,160.977,212.061,152.155,211.981z"/>
<path d="M503.993,19.989c-0.406,0-0.812,0.031-1.213,0.093c-44.799,6.878-74.576,16.816-96.118,27.646
	c-0.102,0.047-0.205,0.086-0.306,0.137c-0.481,0.247-0.948,0.496-1.422,0.743c-20.512,10.573-33.42,21.93-44.955,32.081
	c-11.732,10.326-21.937,19.307-37.848,25.142c-13.965-3.623-37.088-5.682-64.189-5.682l-1.905,0.003l-1.967-0.003
	c-27.102,0-50.225,2.06-64.189,5.682c-15.911-5.835-26.116-14.815-37.848-25.142c-11.533-10.151-24.441-21.509-44.953-32.08
	c-0.474-0.249-0.942-0.498-1.424-0.745c-0.1-0.051-0.203-0.09-0.305-0.137C83.808,36.898,54.031,26.959,9.23,20.082
	c-0.402-0.062-0.808-0.093-1.214-0.093c-2.858,0-5.503,1.528-6.932,4.003c-1.788,3.098-1.375,4.812,1.313,15.965
	c1.347,5.587,3.634,14.5,6.885,25.234c5.567,18.381,14.832,44.846,27.359,66.533c15.818,27.388,33.405,41.273,52.278,41.272
	c0.002,0,0.008,0,0.01,0c10.012-0.003,20.074-3.979,29.911-11.816c6.004-4.785,9.004-5.477,9.901-5.572
	c0.114,0.17,0.28,0.456,0.467,0.905c-0.633,14.849-9.529,34.114-19.781,56.319c-16.405,35.53-36.822,79.748-37.312,133.712
	c-0.441,48.48,20.121,87.58,59.461,113.074c31.568,20.457,75.258,31.962,123.096,32.395h2.289c0.024,0,0.048,0,0.073,0
	c47.799-0.434,91.554-11.937,123.205-32.389c39.471-25.506,60.102-64.608,59.661-113.08c-0.49-53.962-20.907-98.181-37.312-133.712
	c-10.253-22.206-19.148-41.471-19.781-56.319c0.19-0.456,0.357-0.743,0.471-0.912c0.774,0.076,3.772,0.699,9.896,5.579
	c9.841,7.842,19.905,11.817,29.914,11.816c25.131-0.003,47.769-24.409,67.287-72.539c13.836-34.12,21.631-69.441,21.63-72.435
	C512,23.605,508.411,19.988,503.993,19.989z M474.793,96.28c-16.163,39.152-34.528,60.715-51.712,60.718
	c-6.295,0-13.003-2.802-19.94-8.33c-7.665-6.107-14.221-9.077-20.045-9.077c-3.595,0-12.348,1.302-15.985,13.364
	c-0.233,0.772-0.348,1.576-0.34,2.382c0.167,18.458,9.956,39.656,21.289,64.202c15.763,34.139,35.38,76.625,35.84,127.15
	c0.856,94.213-85.686,128.578-166.978,129.325h-2.179c-81.116-0.737-167.488-35.098-166.632-129.326
	c0.459-50.524,20.077-93.011,35.84-127.15c11.332-24.546,21.121-45.744,21.289-64.202c0.007-0.807-0.107-1.61-0.34-2.382
	c-3.638-12.062-12.39-13.364-15.985-13.364c-5.825,0-12.381,2.969-20.045,9.077c-6.934,5.525-13.643,8.328-19.943,8.33
	c-0.002,0-0.003,0-0.005,0c-17.182,0-35.544-21.563-51.706-60.716c-9.271-22.459-15.656-45.436-18.871-58.49
	c36.393,6.387,61.085,14.782,79.385,23.949c0.207,0.131,0.419,0.256,0.641,0.37c48.952,25.034,48.136,56.656,47.698,73.645
	c-0.032,1.245-0.062,2.402-0.071,3.461c-0.041,4.418,3.509,8.032,7.927,8.072c0.025,0,0.049,0,0.074,0
	c4.384,0,7.958-3.534,7.998-7.927c0.009-0.978,0.037-2.045,0.066-3.194c0.174-6.737,0.433-16.944-2.58-28.637
	c7.749,5.584,16.455,10.526,27.568,14.263c1.568,0.528,3.26,0.556,4.844,0.082c11.982-3.586,35.226-5.727,62.176-5.727l1.967,0.003
	l1.905-0.003c26.95,0,50.193,2.141,62.176,5.727c1.583,0.475,3.276,0.446,4.844-0.082c11.112-3.738,19.82-8.68,27.568-14.263
	c-3.013,11.692-2.753,21.9-2.58,28.637c0.029,1.149,0.057,2.216,0.066,3.194c0.04,4.394,3.613,7.927,7.998,7.927
	c0.024,0,0.05,0,0.074,0c4.418-0.04,7.967-3.654,7.927-8.072c-0.009-1.059-0.039-2.216-0.071-3.461
	c-0.438-16.988-1.254-48.611,47.698-73.645c0.22-0.113,0.431-0.238,0.636-0.367c18.301-9.168,42.995-17.564,79.392-23.952
	C490.454,50.841,484.069,73.811,474.793,96.28z"/>
<path d="M264.569,412.139c-0.024,0-0.049,0-0.074,0l-15.999,0.145c-4.418,0.04-7.967,3.654-7.927,8.072
	c0.04,4.394,3.613,7.928,7.998,7.928c0.024,0,0.049,0,0.074,0l15.998-0.145c4.418-0.04,7.967-3.654,7.927-8.072
	C272.527,415.672,268.953,412.139,264.569,412.139z"/>
<g>
</g>
<g>
</g>
<g>
</g>
<g>
</g>
<g>
</g>
<g>
</g>
<g>
</g>
<g>
</g>
<g>
</g>
<g>
</g>
<g>
</g>
<g>
</g>
<g>
</g>
<g>
</g>
<g>
</g>
</svg>
