<?xml version="1.0" encoding="iso-8859-1"?>
<!-- Generator: Adobe Illustrator 19.0.0, SVG Export Plug-In . SVG Version: 6.00 Build 0)  -->
<svg version="1.1" id="Layer_1" xmlns="http://www.w3.org/2000/svg" xmlns:xlink="http://www.w3.org/1999/xlink" x="0px" y="0px"
	 viewBox="0 0 512 512" style="enable-background:new 0 0 512 512;" xml:space="preserve">
<path style="fill:#AC8A67;" d="M334.29,212.339C347.067,181.432,368,114.545,368,8c-59.333,28.667-112,163-112,184
	c0-21-52.667-155.333-112-184c0,106.545,20.933,173.432,33.71,204.339l5.917,35.87C180.25,265,144,324,144,408
	c0,61.856,50.144,96,112,96s112-34.144,112-96c0-84-36.25-143-39.627-159.792L334.29,212.339z"/>
<path style="fill:#E1BE9B;" d="M280,503.977h-48c-13.2,0-24-10.8-24-24l0,0c0-13.2,10.8-24,24-24h48c13.2,0,24,10.8,24,24l0,0
	C304,493.177,293.2,503.977,280,503.977z"/>
<path style="fill:#C8A587;" d="M296,359.977c-5.333-26-20.667-32-40-32s-34.667,6-40,32c-7.441,36.278-28.533,60.24-31.621,88.99
	c-2.367,22.04,11.356,43.102,33.258,46.513c12.651,1.971,24.297-2.059,32.767-9.609c3.252-2.899,7.938-2.899,11.19,0
	c8.47,7.551,20.116,11.58,32.767,9.609c21.903-3.411,35.626-24.473,33.259-46.513C324.533,420.217,303.441,396.255,296,359.977z"/>
<path style="fill:#AC8A67;" d="M286.641,435.539c-2.453-3.675-7.414-4.684-11.094-2.219l-19.563,13.043l-19.563-13.043
	c-3.695-2.465-8.648-1.457-11.094,2.219c-2.453,3.676-1.461,8.645,2.219,11.094l24,16c1.344,0.895,2.891,1.344,4.438,1.344
	c1.547,0,3.094-0.449,4.438-1.344l24-16C288.102,444.184,289.094,439.215,286.641,435.539z"/>
<g>
	<path style="fill:#C8A587;" d="M146,44c0,0-4.5,101,41,183C187,227,214,170.5,146,44z"/>
	<path style="fill:#C8A587;" d="M365.877,44c0,0,4.5,101-41,183C324.877,227,297.877,170.5,365.877,44z"/>
</g>
<path d="M336.215,246.631c-0.018-0.088-0.045-0.172-0.066-0.259c-0.02-0.086-0.033-0.172-0.056-0.258
	c-1.134-4.179-2.125-8.253-3.004-12.244C341.196,218.961,376,146.854,376,8c0-0.052-0.007-0.103-0.008-0.155
	c-0.003-0.166-0.012-0.332-0.025-0.498c-0.008-0.106-0.019-0.213-0.032-0.319c-0.018-0.147-0.041-0.293-0.067-0.44
	c-0.022-0.125-0.047-0.25-0.075-0.374c-0.028-0.121-0.06-0.24-0.093-0.361c-0.041-0.146-0.085-0.291-0.134-0.434
	c-0.034-0.098-0.07-0.196-0.107-0.293c-0.061-0.158-0.126-0.313-0.197-0.466c-0.021-0.046-0.037-0.094-0.059-0.14
	c-0.021-0.044-0.048-0.084-0.069-0.127c-0.074-0.146-0.152-0.288-0.234-0.428c-0.057-0.097-0.115-0.194-0.175-0.289
	c-0.075-0.116-0.153-0.228-0.233-0.339c-0.079-0.11-0.158-0.218-0.241-0.323c-0.071-0.089-0.146-0.174-0.22-0.26
	c-0.099-0.114-0.198-0.226-0.303-0.333c-0.073-0.074-0.148-0.146-0.223-0.217c-0.112-0.105-0.224-0.21-0.34-0.309
	c-0.083-0.07-0.17-0.137-0.256-0.204c-0.113-0.088-0.226-0.175-0.343-0.257c-0.104-0.072-0.211-0.139-0.319-0.207
	c-0.105-0.065-0.209-0.132-0.317-0.192c-0.126-0.072-0.257-0.136-0.387-0.201c-0.096-0.047-0.191-0.096-0.289-0.139
	c-0.142-0.063-0.287-0.119-0.432-0.175c-0.095-0.035-0.19-0.072-0.286-0.104c-0.143-0.048-0.289-0.089-0.435-0.129
	c-0.109-0.03-0.218-0.059-0.328-0.084c-0.13-0.029-0.263-0.054-0.396-0.077c-0.135-0.023-0.271-0.045-0.407-0.062
	c-0.111-0.014-0.224-0.023-0.336-0.032c-0.162-0.014-0.324-0.021-0.487-0.025C368.096,0.007,368.049,0,368,0
	c-0.051,0-0.1,0.007-0.151,0.008c-0.168,0.003-0.336,0.012-0.505,0.025c-0.104,0.009-0.208,0.019-0.311,0.031
	c-0.15,0.019-0.3,0.042-0.45,0.069c-0.123,0.022-0.244,0.046-0.365,0.073c-0.124,0.028-0.247,0.061-0.371,0.095
	c-0.144,0.04-0.286,0.083-0.426,0.131c-0.101,0.034-0.2,0.071-0.3,0.109c-0.157,0.061-0.311,0.126-0.462,0.196
	c-0.047,0.021-0.094,0.037-0.141,0.059c-0.091,0.044-0.181,0.095-0.272,0.139c-0.026,0.015-0.054,0.027-0.081,0.042
	c-33.978,16.636-63.074,62.557-81.522,98.222c-11.284,21.814-20.543,43.678-26.645,61.093c-6.101-17.415-15.36-39.279-26.645-61.093
	c-18.449-35.665-47.544-81.586-81.522-98.222c-0.026-0.015-0.054-0.027-0.081-0.042c-0.091-0.044-0.181-0.095-0.271-0.139
	c-0.046-0.022-0.093-0.038-0.14-0.059c-0.153-0.07-0.309-0.136-0.467-0.197c-0.097-0.038-0.194-0.073-0.291-0.106
	c-0.145-0.05-0.29-0.094-0.438-0.135c-0.119-0.033-0.238-0.064-0.357-0.091c-0.125-0.029-0.25-0.054-0.377-0.076
	c-0.146-0.026-0.292-0.049-0.438-0.067c-0.106-0.013-0.214-0.023-0.321-0.032c-0.166-0.014-0.331-0.022-0.497-0.025
	C144.103,0.007,144.052,0,144,0c-0.05,0-0.098,0.007-0.148,0.007c-0.162,0.003-0.322,0.011-0.482,0.024
	c-0.114,0.009-0.228,0.019-0.34,0.033c-0.136,0.017-0.271,0.038-0.405,0.062c-0.133,0.023-0.265,0.047-0.396,0.077
	c-0.111,0.025-0.221,0.056-0.331,0.085c-0.145,0.04-0.289,0.081-0.431,0.127c-0.099,0.033-0.195,0.07-0.292,0.107
	c-0.144,0.054-0.286,0.109-0.426,0.171c-0.1,0.044-0.198,0.094-0.296,0.143c-0.127,0.063-0.255,0.127-0.379,0.197
	c-0.11,0.063-0.218,0.13-0.326,0.198c-0.105,0.066-0.209,0.131-0.311,0.202c-0.12,0.083-0.235,0.172-0.351,0.262
	c-0.083,0.065-0.168,0.13-0.249,0.198c-0.119,0.101-0.233,0.207-0.346,0.314c-0.073,0.069-0.147,0.139-0.217,0.211
	c-0.106,0.108-0.207,0.222-0.307,0.337c-0.073,0.085-0.147,0.169-0.217,0.257c-0.084,0.105-0.164,0.215-0.243,0.325
	c-0.08,0.111-0.157,0.223-0.231,0.337c-0.061,0.095-0.119,0.192-0.176,0.291c-0.082,0.14-0.16,0.282-0.234,0.427
	c-0.021,0.043-0.048,0.083-0.069,0.127c-0.022,0.046-0.038,0.093-0.059,0.14c-0.07,0.153-0.136,0.308-0.197,0.466
	c-0.038,0.098-0.073,0.195-0.107,0.293c-0.049,0.143-0.093,0.288-0.134,0.434c-0.033,0.121-0.064,0.241-0.093,0.361
	c-0.028,0.124-0.053,0.249-0.075,0.374c-0.026,0.147-0.049,0.293-0.067,0.44c-0.013,0.106-0.023,0.213-0.031,0.319
	c-0.014,0.166-0.022,0.332-0.025,0.498C136.007,7.897,136,7.948,136,8c0,138.854,34.804,210.961,42.911,225.87
	c-0.878,3.991-1.87,8.065-3.004,12.244c-0.023,0.086-0.036,0.172-0.056,0.259c-0.021,0.086-0.048,0.17-0.066,0.258
	c-0.667,3.314-3.545,10.153-6.878,18.073C157.406,292.03,136,342.896,136,408c0,31.862,12.378,58.638,35.796,77.436
	C193.139,502.565,223.043,512,256,512s62.861-9.435,84.204-26.564C363.622,466.638,376,439.862,376,408
	c0-65.104-21.406-115.97-32.907-143.296C339.76,256.784,336.882,249.945,336.215,246.631z M338.888,174.688
	c-3.534,12.151-7.083,22.21-10.234,30.214c-3.934-47.467,10.588-81.07,24.747-113.781c0.86-1.987,1.716-3.967,2.565-5.941
	C351.764,123.912,344.96,153.813,338.888,174.688z M156.011,85.126c0.856,1.993,1.721,3.99,2.589,5.996
	c14.155,32.702,28.673,66.296,24.751,113.742C174.41,182.08,162.229,142.507,156.011,85.126z M256,488.685
	c2.61,2.61,5.729,4.979,9.167,7.026c-3.05,0.191-6.109,0.29-9.167,0.29s-6.117-0.099-9.167-0.29
	C250.271,493.663,253.39,491.295,256,488.685z M327.034,475.067C327.673,471.647,328,467.96,328,464c0-4.418-3.582-8-8-8
	s-8,3.582-8,8c0,8.764-1.969,15.181-5.852,19.074c-3.102,3.11-7.526,4.686-13.152,4.686C278.019,487.76,264,476.923,264,472v-11.719
	l20.438-13.625c3.676-2.451,4.67-7.417,2.219-11.094c-2.451-3.677-7.417-4.669-11.094-2.219L256,446.386l-19.563-13.042
	c-3.675-2.452-8.643-1.458-11.094,2.219c-2.451,3.676-1.458,8.643,2.219,11.094L248,460.281V472c0,4.923-14.019,15.76-28.997,15.76
	c-5.625,0-10.05-1.576-13.152-4.686C201.969,479.181,200,472.764,200,464c0-4.418-3.582-8-8-8s-8,3.582-8,8
	c0,3.96,0.327,7.647,0.966,11.067C165.229,460.672,152,438.589,152,408c0-61.875,20.591-110.804,31.654-137.09
	c3.881-9.221,6.703-15.935,7.745-20.797c20.561-75.989,0.015-123.461-18.115-165.347c-8.915-20.597-17.426-40.264-20.277-61.764
	c20.182,15.291,41.813,44.255,62.138,83.548c17.625,34.072,28.378,64.392,31.725,78.523c-6.594,1.48-13.152,4.565-19.599,9.257
	c-3.572,2.601-4.359,7.604-1.759,11.176c2.601,3.572,7.604,4.36,11.176,1.759C243.311,202.445,249.809,200,256,200
	c6.191,0,12.689,2.445,19.313,7.267c1.421,1.035,3.069,1.533,4.702,1.533c2.471,0,4.908-1.142,6.474-3.292
	c2.6-3.572,1.813-8.576-1.759-11.176c-6.446-4.692-13.004-7.777-19.599-9.257c3.347-14.131,14.1-44.451,31.725-78.523
	c20.325-39.293,41.956-68.258,62.138-83.548c-2.851,21.5-11.362,41.167-20.277,61.764c-18.13,41.886-38.675,89.358-18.115,165.347
	c1.042,4.862,3.864,11.576,7.745,20.797C339.409,297.196,360,346.125,360,408C360,438.589,346.771,460.672,327.034,475.067z"/>
<path d="M188,304c-7.402,0-12,7.664-12,20s4.598,20,12,20s12-7.664,12-20S195.402,304,188,304z"/>
<path d="M312,324c0,12.336,4.598,20,12,20s12-7.664,12-20s-4.598-20-12-20S312,311.664,312,324z"/>
<g>
</g>
<g>
</g>
<g>
</g>
<g>
</g>
<g>
</g>
<g>
</g>
<g>
</g>
<g>
</g>
<g>
</g>
<g>
</g>
<g>
</g>
<g>
</g>
<g>
</g>
<g>
</g>
<g>
</g>
</svg>
