<?xml version="1.0" encoding="iso-8859-1"?>
<!-- Generator: Adobe Illustrator 19.0.0, SVG Export Plug-In . SVG Version: 6.00 Build 0)  -->
<svg version="1.1" id="Layer_1" xmlns="http://www.w3.org/2000/svg" xmlns:xlink="http://www.w3.org/1999/xlink" x="0px" y="0px"
	 viewBox="0 0 512.003 512.003" style="enable-background:new 0 0 512.003 512.003;" xml:space="preserve">
<path style="fill:#FFA54B;" d="M376.001,208.002c-5.629-17.291-18.807-20.72-27.042-14.339l11.042-9.661c13.5-49.5,56-136,56-136
	l-32,16l16-56l-40,48l-8-32c0,0-55.122,81.925-55.98,216c-25.241-9.521-52.052-8.894-80.04,0c-0.827-134.147-55.98-216-55.98-216
	l-8,32l-40-48l16,56l-32-16c0,0,42.5,86.5,56,136l11.042,9.661c-8.235-6.381-21.412-2.952-27.042,14.339
	c-9.09,27.921,25.333,78.667,16,120h0.208c-8.618,24.483-16.232,50.688-16.232,80c0,61.856,53.726,96,120,96h0.05
	c66.274,0,120-34.144,120-96c0-29.313-7.615-55.517-16.232-80h0.206C350.668,286.668,385.092,235.923,376.001,208.002z"/>
<g>
	<path style="fill:#B47D5A;" d="M376.001,208.002c-7-21.5-25.676-21.581-32-8c-19.857,42.644-0.286,82.322,15.792,128h0.208
		C350.668,286.668,385.092,235.923,376.001,208.002z"/>
	<path style="fill:#B47D5A;" d="M152.001,328.002h0.208c16.078-45.678,35.649-85.356,15.792-128c-6.324-13.581-25-13.5-32,8
		C126.911,235.923,161.335,286.668,152.001,328.002z"/>
</g>
<path style="fill:#C3875A;" d="M256.001,231.203c-48.5,0.799-80.75,18.049-102.233,61.704c10.367-2.362,22.257,4.122,25.482,24.041
	c4.797,29.629,22.017,83.347,66.173,91.054h10.578h10.578c44.156-7.707,61.376-61.425,66.173-91.054
	c3.225-19.919,15.116-26.403,25.482-24.041C332.251,251.002,301.784,230.449,256.001,231.203z"/>
<path style="fill:#FFCDA5;" d="M222.751,453.502c0,15.74,14.887,28.5,33.25,28.5s33.25-12.76,33.25-28.5H222.751z"/>
<path style="fill:#B47D5A;" d="M236.251,459.252c0,10.908,8.842,19.75,19.75,19.75s19.75-8.842,19.75-19.75H236.251z"/>
<path style="fill:#FFDEB7;" d="M256.001,391.752c-19.585,0-47.5,28.5-47.5,47.5c0,14.25,9.5,28.5,23.75,28.5
	c11.383,0,17.603-5.144,20.788-12.315c0.521-1.173,1.679-1.935,2.962-1.935s2.441,0.761,2.962,1.935
	c3.185,7.171,9.404,12.315,20.788,12.315c14.25,0,23.75-14.25,23.75-28.5C303.501,420.252,275.586,391.752,256.001,391.752z"/>
<circle style="fill:#FFA54B;" cx="256.001" cy="401.751" r="23.75"/>
<path d="M187.977,328.002c-7.402,0-12,7.664-12,20s4.598,20,12,20s12-7.664,12-20S195.378,328.002,187.977,328.002z"/>
<path d="M311.978,348.002c0,12.336,4.598,20,12,20s12-7.664,12-20s-4.598-20-12-20S311.978,335.666,311.978,348.002z"/>
<path d="M300.518,425.398c-3.647-2.494-8.625-1.559-11.119,2.089c-2.494,3.647-1.559,8.625,2.089,11.119
	c1.686,1.153,4.514,3.603,4.514,7.061c0,5.505-7.477,10.335-16,10.335s-16-4.83-16-10.335v-13.051
	c2.787-1.079,5.401-2.727,7.646-4.971l5.986-5.985c3.124-3.124,3.125-8.189,0-11.314c-3.124-3.124-8.189-3.124-11.314,0
	l-5.986,5.986c-2.403,2.403-6.312,2.402-8.715,0l-5.985-5.985c-3.124-3.124-8.189-3.124-11.313,0c-3.125,3.124-3.125,8.19,0,11.314
	l5.985,5.985c2.259,2.259,4.891,3.912,7.696,4.99v13.033c0,5.505-7.477,10.335-16,10.335s-16-4.83-16-10.335
	c0-3.458,2.829-5.908,4.514-7.061c3.647-2.494,4.583-7.472,2.089-11.119c-2.494-3.647-7.472-4.582-11.119-2.089
	c-7.298,4.99-11.484,12.378-11.484,20.269c0,14.521,14.355,26.335,32,26.335c0,2.047,0.781,4.095,2.343,5.657l3.797,3.797
	c4.924,4.923,11.392,7.385,17.86,7.385c6.468,0,12.936-2.462,17.86-7.386l3.797-3.797c1.562-1.562,2.343-3.609,2.343-5.657
	c17.645,0,32-11.814,32-26.335C312.001,437.776,307.816,430.388,300.518,425.398z M249.455,470.142l-1.609-1.609
	c3.074-1.448,5.828-3.302,8.156-5.475c2.328,2.173,5.082,4.026,8.155,5.475l-1.609,1.609
	C258.939,473.752,253.064,473.751,249.455,470.142z"/>
<path d="M421.639,42.325c-2.437-2.419-6.144-3.014-9.215-1.479l-15.734,7.867l11.004-38.514c1.039-3.635-0.61-7.501-3.952-9.27
	c-3.341-1.768-7.465-0.954-9.886,1.95l-29.915,35.898l-4.179-16.716c-0.76-3.04-3.225-5.356-6.306-5.926
	c-3.085-0.569-6.212,0.712-8.009,3.279c-0.595,0.85-14.737,21.251-28.929,58.757c-12.301,32.51-26.828,84.342-28.375,150.301
	c-10.723-3.492-21.48-5.263-32.105-5.269c-0.012-0.001-0.026-0.001-0.038,0c-0.013-0.001-0.027-0.001-0.038,0
	c-10.626,0.006-21.385,1.777-32.109,5.271c-1.573-64.694-16.078-116.522-28.362-149.281c-14.171-37.789-28.274-58.802-28.867-59.678
	c-1.771-2.613-4.914-3.94-8.018-3.391c-3.107,0.55-5.601,2.875-6.367,5.937l-4.179,16.716L118.147,2.88
	c-2.419-2.904-6.542-3.719-9.886-1.95c-3.342,1.768-4.991,5.634-3.952,9.27l11.004,38.514l-15.734-7.867
	c-3.071-1.535-6.779-0.94-9.215,1.479c-2.436,2.419-3.057,6.123-1.543,9.204c0.419,0.853,41.812,85.349,55.219,133.705
	c-6.922,3.549-12.5,10.629-15.646,20.291c-5.069,15.568,0.795,35.333,7.002,56.259c6.52,21.977,13.262,44.702,8.801,64.456
	c-0.064,0.286-0.113,0.571-0.146,0.855c-8.469,24.322-16.076,51.171-16.076,80.907c0,31.97,13.261,58.803,38.351,77.599
	c22.727,17.025,54.564,26.401,89.699,26.401c35.085,0,66.923-9.376,89.649-26.401c25.089-18.795,38.351-45.628,38.351-77.599
	c0-29.736-7.607-56.585-16.076-80.907c-0.033-0.284-0.081-0.569-0.146-0.855c-4.461-19.753,2.281-42.479,8.801-64.456
	c6.208-20.926,12.071-40.691,7.002-56.259c-3.146-9.661-8.723-16.742-15.646-20.291c13.402-48.339,54.8-132.852,55.219-133.705
	C424.695,48.448,424.076,44.745,421.639,42.325z M143.608,210.479c2.733-8.395,7.216-11.599,10.5-11.797
	c0.117-0.007,0.233-0.011,0.349-0.011c2.575,0,4.908,1.736,6.292,4.708c9.629,20.679,9.099,40.801,4.107,61.83
	c-0.208,0.842-0.415,1.691-0.629,2.515c-0.022,0.086-0.034,0.172-0.054,0.258c-1.556,6.115-3.465,12.313-5.589,18.626
	c-2.121-10.071-5.06-19.98-7.847-29.375C145.256,238.762,140.081,221.314,143.608,210.479z M361.267,257.233
	c-2.787,9.395-5.727,19.304-7.847,29.375c-9.781-29.067-15.006-55.653-2.166-83.229c1.384-2.972,3.717-4.708,6.292-4.708
	c0.116,0,0.232,0.004,0.349,0.011c3.284,0.199,7.766,3.403,10.5,11.797C371.922,221.314,366.747,238.762,361.267,257.233z
	 M352.284,181.897c-0.133,0.488-0.212,0.977-0.252,1.463c-5.352,1.386-10.044,4.811-13.324,9.772
	c-0.029-27.474,3.595-55.407,12.686-78.162c1.639-4.103-0.358-8.758-4.461-10.397c-4.102-1.639-8.758,0.358-10.397,4.461
	c-9.325,23.342-14.1,53.151-13.807,86.206c0.232,26.262,3.705,54.151,9.527,76.514c0.036,0.136,0.096,0.258,0.138,0.391
	c3.55,13.866,8.652,27.778,13.866,41.972c10.702,29.13,21.768,59.252,21.768,93.885c0,60.79-56.251,88-112.05,88
	c-55.749,0-112-27.21-112-88c0-34.633,11.066-64.755,21.768-93.885c5.263-14.327,10.412-28.365,13.965-42.361v-0.001
	c0.002-0.01,0.005-0.021,0.008-0.031c0.174-0.688,0.349-1.376,0.516-2.064c5.502-21.999,8.778-48.964,9.004-74.419
	c0.292-33.055-4.482-62.864-13.807-86.206c-1.64-4.104-6.296-6.101-10.397-4.461c-4.103,1.639-6.101,6.294-4.461,10.397
	c9.084,22.74,12.71,50.652,12.686,78.109c-3.278-4.931-7.956-8.335-13.286-9.717c-0.04-0.487-0.119-0.977-0.252-1.466
	c-9.566-35.076-32.948-87.375-46.476-116.329l11.18,5.59c2.838,1.42,6.247,1.027,8.687-0.999c2.441-2.026,3.455-5.304,2.583-8.354
	l-5.598-19.592l15.76,18.912c1.928,2.314,4.994,3.349,7.929,2.677c2.937-0.672,5.247-2.936,5.978-5.858l3.182-12.729
	c15.664,30.137,45.055,99.401,45.055,194.787c0,4.187,3.218,7.617,7.315,7.965c0.123,0.011,0.248,0.013,0.372,0.019
	c0.104,0.004,0.207,0.016,0.313,0.016c0.017,0,0.033-0.002,0.05-0.002c1.069,0,2.156-0.212,3.198-0.668
	c12.323-5.391,24.688-8.125,36.752-8.128c12.063,0.003,24.429,2.738,36.752,8.128c1.043,0.457,2.131,0.672,3.202,0.672
	c0.012,0,0.023-0.002,0.035-0.002c0.003,0,0.007,0,0.011,0c0.359,0,0.71-0.032,1.057-0.078c0.032-0.004,0.063-0.01,0.095-0.015
	c3.871-0.56,6.848-3.881,6.848-7.908c0-68.741,14.822-122.542,27.256-155.57c6.341-16.844,12.723-30.148,17.72-39.54l3.263,13.05
	c0.73,2.922,3.041,5.187,5.978,5.858c2.937,0.672,6.001-0.363,7.929-2.677l15.76-18.912l-5.598,19.592
	c-0.872,3.05,0.142,6.328,2.583,8.354s5.849,2.419,8.687,0.999l11.18-5.59C385.232,94.522,361.85,146.821,352.284,181.897z"/>
<g>
</g>
<g>
</g>
<g>
</g>
<g>
</g>
<g>
</g>
<g>
</g>
<g>
</g>
<g>
</g>
<g>
</g>
<g>
</g>
<g>
</g>
<g>
</g>
<g>
</g>
<g>
</g>
<g>
</g>
</svg>
